<?xml version="1.0" standalone="no"?>
<!DOCTYPE svg PUBLIC "-//W3C//DTD SVG 20010904//EN"
 "http://www.w3.org/TR/2001/REC-SVG-20010904/DTD/svg10.dtd">
<svg version="1.0" xmlns="http://www.w3.org/2000/svg"
 width="600.000000pt" height="600.000000pt" viewBox="0 0 600.000000 600.000000"
 preserveAspectRatio="xMidYMid meet">
<metadata>
Created by potrace 1.11, written by Peter Selinger 2001-2013
</metadata>
<g transform="translate(0.000000,600.000000) scale(0.100000,-0.100000)"
fill="#000000" stroke="none">
<path d="M531 5946 c-104 -71 -213 -157 -207 -163 3 -3 23 9 46 27 22 17 66
44 98 60 58 28 200 65 210 55 3 -3 0 -5 -7 -5 -28 0 -181 -83 -239 -130 -58
-46 -66 -50 -117 -50 l-55 0 0 -68 c0 -54 -5 -74 -23 -102 -13 -19 -31 -54
-40 -77 -16 -40 -15 -43 1 -52 10 -7 12 -11 5 -12 -7 -1 -17 -2 -22 -3 -5 0
-13 -5 -18 -10 -5 -5 -3 -6 5 -2 6 4 12 3 12 -3 0 -5 -8 -15 -17 -20 -10 -6
-14 -11 -10 -11 4 0 3 -9 -4 -21 -8 -15 -8 -24 0 -32 8 -8 13 -2 17 21 4 17
13 37 20 43 8 6 13 14 11 18 -2 3 13 21 31 39 l34 33 -6 -93 c-8 -124 -9 -128
-18 -128 -4 0 -7 -3 -6 -7 1 -5 -2 -33 -7 -63 -4 -30 -10 -75 -12 -100 -5 -71
-6 -73 -21 -91 -14 -16 -31 -56 -52 -121 -6 -21 -5 -26 6 -21 13 5 15 11 18
46 1 6 8 19 16 27 9 8 30 35 48 59 l32 45 0 -2387 0 -2387 956 0 955 0 25 -57
c30 -70 47 -106 54 -113 3 -3 14 -23 25 -45 l20 -40 1853 -3 1852 -2 -3 1272
c-1 700 -5 1283 -9 1296 -4 12 -9 26 -12 31 -3 5 0 14 8 20 16 13 15 86 -2
103 -8 8 -12 8 -12 1 0 -6 6 -14 13 -16 9 -4 9 -6 -1 -6 -10 -1 -10 -6 -2 -21
9 -16 8 -18 -5 -14 -8 3 -13 10 -10 14 3 5 -8 18 -25 30 -17 12 -28 25 -26 29
3 4 -8 18 -23 31 -23 18 -28 29 -24 51 2 18 0 29 -7 29 -6 0 -9 -4 -6 -9 5 -8
-2 -8 -33 -2 -2 1 2 8 10 17 11 13 11 15 -2 14 -27 -4 -40 0 -33 11 5 8 8 8
14 0 3 -7 7 1 7 18 0 20 -4 28 -14 24 -7 -3 -11 -9 -8 -13 7 -11 -12 -23 -25
-15 -10 6 19 74 32 75 11 0 5 -23 -7 -33 -5 -4 6 -5 25 -3 19 3 29 3 23 0 -18
-8 -16 -21 2 -21 8 0 12 4 9 8 -2 4 5 6 16 4 14 -3 18 0 13 8 -5 9 -3 9 8 2
18 -13 38 -12 65 2 16 10 21 9 21 -2 0 -7 -7 -11 -16 -8 -9 2 -5 -3 9 -11 14
-8 19 -15 12 -16 -7 0 -10 -4 -7 -10 13 -22 21 -8 20 40 0 28 -5 50 -10 50 -6
0 -10 -4 -10 -9 0 -5 -3 -13 -8 -17 -4 -4 -7 -2 -7 4 0 7 -4 12 -10 12 -5 0
-6 -8 -3 -17 6 -16 5 -16 -10 -4 -9 7 -14 18 -10 24 3 6 1 7 -6 3 -9 -6 -9
-11 -1 -21 9 -11 7 -14 -9 -12 -12 1 -21 6 -21 12 0 5 -7 2 -14 -7 -7 -10 -16
-15 -19 -11 -4 3 -1 13 6 21 9 13 9 14 0 8 -7 -4 -13 -2 -13 3 0 6 -5 11 -11
11 -8 0 -8 -5 1 -15 7 -8 8 -15 2 -15 -5 0 -15 6 -21 14 -10 11 -8 17 6 25 10
6 12 11 6 11 -7 0 -12 3 -11 8 2 11 -13 42 -21 42 -11 0 -9 -60 3 -60 6 -1 1
-6 -11 -13 -12 -7 -23 -16 -25 -22 -2 -5 -7 -9 -12 -7 -5 2 -5 -5 -2 -15 6
-14 5 -15 -5 -6 -10 10 -9 16 4 31 20 22 23 39 4 24 -11 -9 -13 -5 -13 18 0
16 3 27 7 24 4 -2 10 0 13 5 3 5 -1 11 -8 14 -21 8 -17 47 4 39 12 -4 11 -1
-3 16 -21 23 -14 47 10 38 9 -4 13 -1 10 6 -2 7 -11 13 -19 12 -9 -1 -14 8
-14 27 0 23 2 26 17 19 12 -7 19 -5 23 6 4 11 2 15 -8 11 -8 -3 -20 1 -27 9
-10 12 -8 19 11 39 22 23 16 37 -6 15 -7 -7 -10 -1 -10 19 0 29 0 29 28 15 16
-8 34 -12 40 -8 7 5 8 3 3 -6 -5 -9 -4 -11 3 -6 8 4 10 2 6 -7 -3 -8 2 -17 11
-21 10 -3 13 -11 9 -18 -11 -17 -12 -48 -2 -42 4 3 8 1 8 -5 0 -5 -3 -11 -7
-14 -5 -2 -2 -2 4 -1 7 2 12 -2 10 -9 -1 -7 6 -11 16 -9 9 2 17 -2 17 -7 0 -5
-8 -8 -18 -6 -10 2 -25 -1 -33 -6 -14 -8 -12 -10 13 -13 6 0 13 -8 15 -16 4
-13 3 -13 -7 0 -9 13 -10 12 -6 -5 10 -35 -18 -61 -35 -33 -6 9 -9 9 -9 1 0
-6 -9 -10 -20 -8 -11 2 -20 0 -20 -5 0 -14 15 -19 30 -10 11 7 19 3 28 -13 12
-21 13 -21 7 -1 -5 21 -4 22 45 26 11 1 22 8 24 14 3 7 -3 10 -15 7 -11 -3
-19 0 -19 6 0 7 5 9 11 5 8 -5 8 -1 0 14 -14 27 -14 29 4 29 9 0 14 -6 11 -13
-3 -8 -1 -16 5 -19 5 -4 9 -3 8 2 -4 25 3 35 21 30 12 -3 18 -1 14 5 -3 5 -15
8 -25 5 -11 -3 -19 -1 -19 4 0 5 6 9 13 9 9 0 9 2 -1 9 -8 4 -13 11 -12 15 1
4 -1 12 -4 19 -3 6 -4 3 -3 -7 1 -10 -3 -21 -9 -23 -15 -5 -11 32 6 54 8 10 2
7 -13 -6 -30 -27 -37 -19 -9 12 9 11 12 17 5 14 -6 -4 -14 -3 -18 3 -6 9 7 14
28 11 4 0 7 4 7 10 0 6 -9 8 -21 4 -15 -5 -19 -4 -15 4 4 6 9 19 11 30 3 15
-1 18 -18 14 -18 -4 -19 -3 -7 6 8 6 10 11 5 11 -6 0 -17 -6 -24 -12 -11 -11
-13 -10 -8 4 4 11 2 15 -6 12 -8 -2 -13 4 -14 17 -2 18 0 19 15 7 13 -9 12 -7
-2 10 -11 12 -21 22 -24 22 -3 0 -2 -3 1 -6 3 -4 2 -14 -3 -24 -7 -13 -4 -22
10 -35 11 -10 20 -23 20 -29 0 -6 -5 -4 -10 4 -5 8 -10 11 -10 7 0 -5 -10 -1
-22 8 -16 10 -23 26 -24 50 -1 19 2 32 7 29 5 -3 7 -18 4 -35 -3 -16 -2 -29 3
-29 12 0 9 55 -4 71 -6 8 -11 48 -11 91 0 68 3 76 19 75 12 -1 17 -7 13 -17
-4 -13 -3 -13 7 1 7 9 19 14 25 12 7 -3 16 3 19 11 5 13 9 14 20 5 8 -6 11
-15 8 -21 -3 -5 9 -3 28 5 18 8 39 12 46 10 14 -5 16 13 2 22 -6 4 -8 10 -5
15 3 4 -2 11 -11 14 -10 4 -13 2 -8 -6 5 -7 3 -8 -6 -3 -8 5 -11 4 -7 -1 3 -6
-14 -10 -41 -9 -38 1 -47 4 -46 18 1 9 -2 17 -7 17 -13 0 -11 -24 4 -39 10
-11 9 -12 -2 -6 -8 5 -12 4 -8 -1 3 -6 -7 -10 -22 -9 -21 0 -27 5 -27 20 2 29
15 45 31 38 11 -4 13 -1 9 11 -4 11 -11 13 -23 6 -15 -7 -17 -4 -17 20 0 16 2
29 5 28 20 -2 22 4 5 17 -19 15 -19 15 0 30 17 13 15 19 -5 17 -9 -1 -7 32 3
45 5 6 15 10 22 7 7 -3 13 1 13 8 0 7 3 22 7 34 4 14 2 21 -9 22 -8 1 -21 3
-28 4 -17 2 -19 34 -4 47 8 6 17 5 28 -2 16 -12 19 -18 19 -39 0 -20 13 1 16
26 2 18 -1 23 -12 19 -7 -3 -17 2 -20 11 -4 11 -11 13 -23 7 -13 -7 -17 -5
-18 10 -2 26 17 36 32 15 11 -15 14 -13 29 18 20 42 20 43 1 43 -8 0 -13 -9
-12 -21 1 -14 -3 -20 -13 -17 -8 2 -20 4 -25 4 -14 0 -17 35 -4 42 5 3 6 0 3
-8 -3 -8 2 -14 11 -14 18 0 18 2 4 29 -8 16 -8 19 1 13 8 -5 11 -3 8 6 -3 8
-12 13 -22 11 -21 -4 -20 6 1 30 9 10 13 21 9 25 -4 4 -12 1 -17 -7 -9 -13
-10 -13 -6 0 2 8 10 15 18 15 8 0 14 -7 14 -15 0 -8 6 -20 14 -26 8 -6 11 -16
8 -21 -4 -7 3 -10 18 -9 14 0 24 5 22 9 -1 5 -6 7 -10 5 -10 -4 -36 36 -40 63
-2 13 -10 25 -17 27 -7 3 -10 0 -7 -5 3 -5 0 -10 -7 -10 -7 0 -13 10 -12 21 1
12 8 21 17 20 11 -1 16 7 16 26 0 16 -6 27 -14 27 -8 0 -12 -6 -9 -13 3 -8 2
-15 -2 -18 -18 -11 -9 35 9 47 10 8 16 17 12 20 -3 4 -11 2 -18 -3 -18 -15
-15 22 4 44 15 18 15 19 0 14 -12 -5 -16 -1 -15 15 1 12 8 21 15 19 7 -1 11 3
8 10 -2 7 -9 12 -14 11 -6 -1 -10 8 -9 20 1 14 7 22 18 21 9 -1 19 5 22 12 4
10 -1 13 -17 10 -27 -5 -34 25 -11 45 8 6 14 16 14 21 0 7 -5 6 -13 0 -11 -9
-13 -5 -13 18 0 16 4 28 9 27 5 -1 12 4 14 11 3 7 -1 11 -8 10 -7 -2 -14 7
-15 19 -1 18 2 21 17 13 25 -14 33 -12 20 3 -6 8 -7 17 -3 21 4 5 -2 6 -12 4
-11 -1 -21 4 -23 12 -4 12 -3 12 5 1 6 -8 12 -10 16 -3 4 6 -2 15 -11 21 -10
6 -14 11 -10 11 5 0 22 -10 39 -21 l30 -22 -7 22 c-4 13 -2 21 5 21 6 0 9 4 5
10 -3 5 -12 7 -20 4 -8 -4 -12 -11 -8 -17 4 -6 1 -7 -7 -2 -10 6 -9 11 5 21
16 12 22 11 38 -4 20 -16 20 -16 13 2 -4 12 -2 22 5 27 7 4 14 17 16 28 4 27
-23 18 -30 -10 -5 -17 -9 -19 -26 -9 -25 13 -27 36 -5 48 15 8 15 11 -3 29
-11 11 -26 22 -34 25 -8 3 -13 25 -14 67 -1 52 2 64 18 73 16 8 17 12 6 19 -8
5 -9 9 -3 9 18 0 24 -13 13 -27 -14 -17 2 -17 20 0 8 6 11 7 8 1 -4 -6 9 -19
28 -30 26 -14 32 -21 23 -31 -13 -16 4 -17 20 -1 17 17 15 25 -8 31 -11 3 -20
11 -20 19 0 10 2 11 9 0 4 -7 17 -14 29 -15 11 0 18 -5 16 -9 -3 -4 3 -5 13
-2 15 5 16 4 3 -5 -13 -9 -13 -11 3 -11 9 0 17 -4 17 -10 0 -5 -8 -7 -17 -4
-15 5 -15 4 -3 -4 8 -6 17 -9 21 -6 4 2 6 -10 4 -28 l-4 -33 15 25 c9 14 13
17 10 8 -3 -10 -2 -17 2 -17 19 3 23 -2 12 -16 -10 -12 -10 -15 1 -15 12 0 12
-2 1 -9 -17 -10 -17 -22 -1 -32 10 -6 7 -10 -10 -17 -21 -7 -22 -10 -7 -15 10
-4 15 -11 12 -16 -3 -5 0 -11 7 -14 9 -3 12 14 12 72 0 69 -3 79 -28 106 -44
48 -57 65 -51 65 4 0 1 6 -5 14 -9 10 -7 17 6 27 15 12 16 12 10 -3 -3 -10 -2
-18 4 -18 6 0 7 -5 3 -12 -4 -7 -3 -8 4 -4 7 4 8 15 2 30 -4 12 -5 27 -2 32 9
12 42 14 42 3 0 -5 -7 -9 -15 -9 -8 0 -15 -5 -15 -10 0 -12 39 5 41 18 6 44 3
212 -4 212 -5 0 -3 8 4 17 11 13 8 13 -13 -2 -32 -23 -36 -35 -10 -30 11 2 19
-3 19 -11 0 -8 -4 -14 -9 -14 -11 0 -6 -23 7 -32 6 -5 5 -8 -4 -8 -11 0 -11
-3 -1 -15 10 -13 10 -19 -4 -34 -12 -13 -14 -21 -6 -26 5 -3 8 -11 4 -16 -3
-5 -11 -6 -17 -2 -7 4 -6 0 2 -10 8 -10 9 -17 3 -17 -6 0 -13 9 -17 19 -4 12
-12 18 -21 14 -12 -4 -12 -8 3 -19 13 -10 14 -13 3 -11 -8 2 -12 2 -7 0 4 -3
7 -9 7 -15 0 -6 -7 -4 -17 3 -15 12 -16 12 -8 -1 8 -13 7 -13 -10 0 -15 12
-17 12 -10 1 5 -9 4 -12 -3 -7 -6 3 -14 1 -18 -5 -5 -8 -3 -9 6 -4 9 6 11 4 5
-5 -6 -9 -4 -11 6 -5 12 8 12 6 0 -8 -7 -9 -11 -18 -7 -18 3 -1 10 -2 15 -3
21 -3 23 -16 3 -16 -20 0 -27 10 -23 33 3 17 -18 5 -24 -14 l-7 -21 -15 22
c-12 17 -13 24 -3 30 8 5 9 10 2 14 -6 4 -15 -2 -21 -11 -6 -11 -11 -13 -11
-5 0 7 -5 10 -11 6 -8 -4 -8 0 0 15 13 24 22 26 39 9 10 -10 12 -7 9 12 -2 15
-12 26 -23 28 -16 3 -17 1 -4 -8 12 -9 10 -10 -9 -5 -13 4 -21 3 -18 -2 3 -4
-1 -19 -8 -33 -12 -22 -14 -22 -13 -5 0 11 -3 28 -6 37 -9 19 23 41 46 33 9
-4 14 2 14 15 0 11 -4 20 -8 20 -4 0 -8 -5 -8 -11 0 -5 -4 -8 -9 -4 -5 3 -12
1 -16 -5 -4 -6 -11 -8 -16 -4 -15 9 10 34 27 27 10 -4 12 0 8 11 -4 11 -11 13
-23 6 -23 -12 -25 17 -2 44 14 17 14 19 1 14 -21 -8 -25 31 -4 39 7 3 11 9 8
14 -3 5 -9 7 -13 4 -5 -2 -8 6 -7 18 1 12 7 21 13 20 6 -1 14 4 17 12 3 9 0
12 -8 9 -18 -7 -29 25 -16 41 8 9 8 15 0 20 -6 3 -8 11 -4 16 3 5 10 6 16 3 6
-4 8 -1 6 7 -3 8 -10 13 -15 12 -5 -1 -9 17 -8 40 0 23 3 41 8 40 4 -2 10 -3
15 -3 4 0 1 -4 -6 -9 -11 -7 -11 -9 1 -14 19 -7 71 39 62 54 -5 7 -11 6 -21
-2 -9 -7 -14 -8 -14 -1 0 6 6 12 13 15 6 2 9 8 4 12 -4 5 -14 0 -21 -11 -9
-12 -11 -21 -4 -25 7 -4 7 -9 0 -13 -6 -3 -13 -2 -17 4 -4 6 -11 8 -16 4 -6
-3 -8 6 -6 23 3 21 9 27 23 25 15 -2 16 -1 4 7 -8 5 -18 7 -22 5 -14 -9 -3 83
11 100 8 9 11 20 7 23 -4 4 -11 2 -15 -5 -6 -10 -10 -10 -18 0 -12 15 -13 48
-1 48 4 0 8 4 8 8 0 4 -9 8 -19 8 -16 0 -19 -6 -15 -34 3 -24 0 -32 -8 -30 -7
3 -13 10 -13 15 0 17 -15 28 -16 12 -1 -8 -1 -17 -1 -20 2 -12 -56 -3 -73 11
-17 13 -18 13 -13 -1 5 -12 -1 -15 -23 -15 -22 0 -26 2 -17 13 13 17 -4 17
-20 1 -14 -14 -204 -19 -196 -6 3 5 0 8 -5 8 -6 0 -11 -4 -11 -8 0 -5 -54 -8
-120 -8 -111 0 -136 5 -110 21 6 3 10 11 10 17 0 6 -16 -2 -35 -16 -27 -21
-33 -23 -28 -9 6 16 5 17 -12 3 -18 -15 -108 -23 -99 -9 2 4 0 10 -5 13 -5 3
-11 -1 -14 -8 -3 -8 -15 -14 -26 -13 -15 1 -17 5 -11 17 7 14 4 17 -20 17 -16
0 -29 -3 -28 -6 2 -18 -3 -31 -12 -31 -5 0 -9 3 -9 8 3 19 -2 26 -11 12 -13
-20 -68 -22 -66 -2 0 8 -4 17 -10 19 -7 2 -11 -4 -10 -13 0 -9 -6 -19 -14 -21
-13 -4 -13 -3 0 6 8 5 11 13 7 17 -4 4 -16 -1 -27 -11 -11 -10 -23 -15 -27
-12 -3 4 0 7 8 7 12 0 12 2 -1 10 -9 6 -17 5 -22 -3 -11 -18 -66 -17 -64 1 0
8 -5 17 -12 19 -7 3 -10 -1 -6 -10 3 -8 1 -18 -5 -22 -6 -3 -14 2 -18 12 -12
34 -45 73 -55 67 -7 -4 -4 -10 6 -16 15 -9 15 -11 -1 -39 -17 -28 -41 -35 -35
-9 1 6 -3 10 -10 7 -7 -2 -21 2 -30 11 -11 9 -18 10 -18 4 0 -6 5 -14 10 -17
13 -8 13 -25 -1 -25 -5 0 -8 4 -4 9 3 5 1 12 -4 15 -5 3 -11 -1 -15 -9 -3 -8
-11 -15 -18 -15 -9 0 -9 3 2 10 8 5 11 12 7 16 -4 4 -12 3 -18 -3 -6 -6 -18
-9 -27 -6 -8 4 -13 2 -9 -3 3 -5 -3 -10 -14 -10 -19 0 -19 1 -3 13 14 10 15
13 3 13 -8 0 -20 -5 -27 -12 -7 -7 -12 -10 -13 -7 0 2 -2 11 -4 21 -3 19 27
19 62 0 15 -9 24 -9 28 -1 4 6 14 8 22 5 9 -4 13 -1 10 6 -2 7 -11 11 -18 9
-8 -2 -20 -3 -26 -2 -7 0 -20 2 -28 3 -17 2 -21 18 -4 18 5 0 7 5 4 10 -4 6
-11 8 -16 5 -5 -3 -6 1 -2 10 5 14 8 14 15 3 8 -10 9 -10 5 3 -3 10 2 15 18
15 13 0 21 -4 18 -10 -3 -5 -1 -6 5 -2 7 4 10 -1 7 -13 -4 -20 20 -37 30 -21
4 6 3 10 -2 10 -4 0 -13 11 -20 25 -6 14 -8 25 -3 25 11 0 31 -26 25 -32 -3
-3 4 -13 15 -23 11 -10 20 -16 21 -14 3 18 8 37 14 54 3 11 -1 8 -10 -7 -17
-30 -28 -37 -19 -13 4 8 1 15 -6 15 -6 0 -8 5 -4 12 5 7 3 8 -5 4 -8 -5 -14 0
-18 14 -4 15 -8 18 -14 9 -8 -13 -39 -22 -39 -11 0 12 15 29 30 35 12 4 11 6
-3 6 -10 1 -20 -6 -23 -14 -4 -8 -10 -13 -15 -10 -4 3 -6 12 -2 20 5 16 -12
21 -21 7 -3 -5 -21 -8 -41 -7 -22 2 -32 -1 -28 -8 3 -6 1 -7 -5 -3 -17 10 -15
29 2 23 15 -6 56 19 56 34 0 5 -6 9 -14 9 -8 0 -17 4 -20 9 -4 5 3 7 15 4 11
-3 23 -12 26 -19 3 -8 9 -11 15 -8 5 4 5 11 -1 18 -8 9 -7 13 4 13 8 0 11 -5
8 -10 -4 -6 -1 -7 8 -2 8 5 5 -1 -5 -13 -11 -12 -14 -22 -8 -22 7 0 12 5 12
11 0 5 4 8 8 5 4 -2 9 4 9 15 1 10 -1 19 -5 20 -4 0 -46 2 -94 4 -60 2 -88 -1
-88 -9 0 -6 -5 -4 -10 4 -9 13 -11 13 -20 0 -7 -11 -10 -11 -10 -2 0 15 -41
13 -52 -2 -3 -5 -17 -11 -30 -13 -17 -2 -19 -1 -8 6 8 5 18 7 22 5 4 -3 8 -1
8 4 0 14 -123 7 -128 -7 -2 -6 -8 -11 -14 -11 -6 0 -8 6 -5 14 6 15 -9 15 -47
0 -12 -4 -17 -4 -13 2 3 6 -18 10 -52 10 -55 0 -57 -1 -55 -26 1 -14 5 -34 10
-45 7 -18 6 -18 -9 -6 -9 7 -15 16 -12 20 9 15 -35 4 -54 -13 -11 -10 -24 -15
-29 -12 -5 3 -17 -1 -27 -8 -14 -10 -15 -15 -5 -21 9 -5 11 -4 6 3 -4 7 -2 12
3 12 18 0 26 -5 24 -12 -2 -4 4 -4 13 -1 15 5 15 3 -1 -20 -9 -15 -15 -32 -12
-39 3 -8 6 -6 6 5 1 10 6 15 11 12 6 -4 8 -11 5 -16 -4 -5 -1 -9 4 -9 14 0 14
17 1 25 -5 3 -10 12 -10 18 1 7 10 1 21 -12 14 -17 17 -27 9 -35 -22 -22 -12
-27 39 -17 2 1 -2 7 -8 14 -6 8 -8 17 -4 20 3 4 0 13 -7 22 -12 14 -7 19 13
16 5 -1 5 4 1 11 -5 8 -1 7 11 -2 10 -8 16 -10 12 -4 -4 7 0 14 8 18 9 3 12
12 9 23 -5 16 -4 16 10 -1 13 -16 16 -16 21 -5 3 8 15 15 25 16 11 1 18 -2 15
-8 -4 -5 -13 -9 -22 -9 -13 0 -13 -3 -3 -15 7 -9 10 -18 7 -22 -4 -3 -9 2 -13
11 -3 9 -10 13 -15 10 -14 -8 -10 -21 9 -28 9 -3 22 -9 29 -12 6 -3 14 4 18
15 3 12 12 18 20 15 12 -5 12 -8 0 -21 -22 -21 -18 -29 4 -9 12 11 21 14 26 7
3 -6 0 -11 -7 -11 -7 0 -4 -6 7 -12 26 -15 36 -30 30 -45 -2 -7 1 -15 7 -19 7
-5 8 -2 3 6 -5 8 -3 11 6 8 8 -3 14 -10 14 -16 0 -5 4 -14 9 -19 5 -5 6 -2 1
6 -5 9 -4 12 3 7 14 -8 7 31 -8 49 -9 10 -6 16 10 25 23 12 36 8 26 -9 -4 -6
-14 -7 -22 -4 -14 5 -14 3 -3 -16 8 -11 16 -21 19 -21 4 0 15 -7 26 -15 19
-15 19 -15 -1 -8 -17 6 -18 4 -8 -8 10 -13 5 -15 -37 -15 -27 0 -47 3 -44 7 2
4 -4 13 -14 20 -15 12 -16 12 -5 -2 7 -9 10 -19 6 -22 -10 -11 -33 -8 -33 4 0
5 5 7 12 3 7 -5 8 -3 3 6 -6 10 -10 10 -19 -3 -17 -23 -748 -23 -767 0 -10 12
-10 16 2 24 21 13 26 11 43 -13 9 -12 16 -18 16 -14 0 5 -7 18 -17 28 -9 10
-11 18 -5 18 6 0 20 -12 32 -27 12 -16 19 -22 15 -16 -7 15 37 63 57 63 7 -1
0 -12 -17 -25 -22 -18 -27 -27 -18 -36 8 -8 13 -7 18 2 5 8 4 10 -3 5 -7 -4
-12 -3 -12 2 0 13 29 25 58 25 12 0 22 4 22 9 0 5 -10 6 -22 2 -21 -6 -21 -5
-9 10 8 9 20 15 26 12 7 -2 23 2 35 11 16 11 25 12 33 4 16 -16 40 -14 34 4
-4 8 -2 17 3 20 6 4 10 1 10 -4 0 -6 8 -11 18 -10 10 0 12 3 4 6 -19 7 -4 23
16 16 9 -3 14 -3 11 1 -4 4 -16 9 -28 11 -15 3 -19 0 -14 -8 4 -7 -2 -5 -12 3
-15 12 -17 12 -10 1 6 -10 4 -12 -5 -6 -9 6 -11 4 -5 -6 6 -11 5 -12 -5 -2
-11 10 -18 9 -34 -5 -21 -17 -21 -17 -2 5 10 13 23 20 27 17 5 -3 9 -1 9 5 0
6 12 9 27 8 15 -1 28 4 31 12 3 9 0 11 -9 7 -8 -4 -6 -1 3 7 10 8 14 18 10 23
-4 4 2 2 12 -6 18 -14 19 -13 13 5 -7 20 -7 20 8 1 8 -11 15 -24 15 -29 0 -4
5 -5 10 -2 6 4 7 11 4 17 -4 7 -2 8 4 4 7 -4 12 -2 12 3 0 6 -6 11 -14 11 -21
0 -30 20 -16 33 10 9 12 8 6 -7 -4 -13 -2 -17 8 -13 16 6 28 -16 20 -36 -3 -8
3 -20 12 -28 12 -9 15 -10 10 -1 -4 6 -2 12 3 12 6 0 11 -5 11 -12 0 -6 7 -3
15 8 8 10 15 15 15 11 0 -4 10 -2 23 5 21 12 26 13 55 16 7 1 10 7 7 12 -5 8
-11 8 -19 1 -7 -6 -16 -8 -20 -4 -10 11 -46 11 -39 0 4 -6 1 -7 -7 -2 -9 5
-11 4 -6 -4 4 -6 4 -10 -1 -9 -4 1 -18 -4 -31 -11 -22 -12 -23 -11 -13 7 6 11
7 23 3 27 -4 5 -1 5 6 1 6 -4 12 -2 12 3 0 6 -7 11 -15 11 -8 0 -15 4 -15 8 0
4 12 7 28 6 15 -1 27 -2 27 -3 0 -2 11 -5 25 -7 14 -3 27 -9 28 -14 2 -6 8 -8
12 -5 5 3 6 13 3 23 -4 10 2 7 15 -8 12 -14 21 -20 22 -15 0 6 -6 17 -12 25
-11 12 -10 12 5 1 13 -10 17 -11 17 -1 0 10 3 10 15 0 13 -11 14 -10 10 2 -4
11 -27 14 -103 14 -57 0 -100 -4 -104 -10 -5 -7 -8 -7 -8 1 0 15 -49 14 -68 0
-9 -8 -10 -12 -2 -17 8 -5 6 -10 -6 -14 -10 -4 -15 -4 -11 0 4 4 -1 13 -11 21
-15 11 -15 12 -1 7 10 -3 19 -1 22 4 4 5 -36 8 -89 8 -80 -1 -97 -4 -105 -18
-6 -10 -7 -18 -3 -18 3 0 1 -7 -6 -15 -6 -8 -8 -20 -4 -27 5 -10 4 -10 -6 -1
-11 10 -11 15 0 28 7 8 9 15 6 15 -4 0 -2 9 4 20 6 11 7 20 1 20 -5 0 -12 -7
-15 -16 -6 -15 -8 -15 -31 0 -18 12 -25 13 -25 4 0 -9 -3 -9 -8 -2 -10 14
-121 13 -115 -2 2 -6 -4 -14 -14 -16 -11 -3 -19 -15 -20 -29 -2 -16 1 -20 6
-10 5 7 11 9 14 4 11 -18 -7 -31 -31 -22 -14 5 -20 13 -16 20 4 8 3 9 -5 5 -6
-4 -8 -12 -5 -18 5 -8 1 -9 -10 -5 -10 4 -20 7 -22 7 -3 0 -2 6 2 13 5 9 4 9
-5 1 -17 -16 -51 -6 -51 15 0 13 -2 13 -9 2 -7 -11 -10 -10 -18 4 -5 9 -13 16
-16 16 -19 -3 -27 0 -27 10 0 5 5 7 12 3 23 -14 56 -13 62 3 5 13 4 14 -9 3
-8 -7 -15 -8 -15 -3 0 5 -15 9 -34 9 -21 0 -32 -4 -29 -11 3 -5 0 -4 -8 3 -10
9 -240 12 -1081 12 l-1067 0 -80 -54z m2528 28 c-6 -7 -17 -10 -25 -7 -8 3
-14 0 -14 -6 0 -6 8 -12 18 -12 16 -1 16 -2 -1 -6 -9 -2 -15 -8 -13 -12 3 -4
0 -13 -5 -21 -8 -13 -9 -12 -7 2 2 9 -6 24 -17 33 -16 13 -16 16 -3 11 11 -3
19 2 23 13 3 10 15 17 30 17 18 0 22 -3 14 -12z m22 -15 c-5 -13 -10 -19 -10
-12 -1 15 10 45 15 40 3 -2 0 -15 -5 -28z m173 14 c-10 -7 -23 -13 -28 -12 -6
0 -5 3 2 6 6 2 10 8 8 12 -3 4 4 7 15 7 19 0 19 -1 3 -13z m52 -15 c-1 -12 -9
-24 -17 -26 -8 -2 -10 0 -4 5 6 4 11 17 13 28 3 20 2 20 -13 1 -8 -11 -15 -15
-15 -10 0 15 22 34 31 28 5 -3 7 -15 5 -26z m55 15 c13 -17 13 -17 -5 -3 -18
14 -19 13 -13 -3 4 -11 3 -16 -3 -12 -6 3 -10 1 -10 -6 0 -7 -3 -10 -6 -7 -5
6 12 48 20 48 2 0 10 -8 17 -17z m446 4 c7 -4 21 -3 32 2 14 8 20 7 25 -4 5
-15 26 -15 71 0 18 6 18 5 -1 -7 -19 -11 -20 -15 -7 -27 8 -7 12 -20 9 -28 -4
-10 -1 -13 13 -8 17 5 37 -17 33 -37 -1 -4 7 -6 18 -5 11 1 19 6 17 12 -3 5
13 22 34 37 37 27 39 27 49 8 8 -15 6 -21 -10 -30 -13 -7 -20 -7 -20 0 0 5 7
10 15 10 8 0 12 6 9 15 -5 12 -11 11 -34 -7 -16 -11 -30 -28 -33 -38 -5 -20
-52 -22 -52 -3 0 7 -6 18 -14 25 -12 11 -13 10 -8 -4 4 -11 -3 -23 -20 -36
-26 -19 -26 -19 -7 -48 l18 -29 -22 19 c-12 10 -24 27 -27 37 -4 11 -11 17
-16 13 -5 -3 -9 -2 -8 3 4 16 -13 43 -27 43 -8 0 -14 5 -14 11 0 5 4 8 9 5 5
-3 15 4 24 17 13 20 13 24 0 36 -13 12 -14 11 -9 -6 5 -17 1 -19 -36 -18 -24
1 -48 -2 -55 -7 -7 -5 -14 -5 -18 2 -3 6 -11 7 -17 4 -7 -4 -8 -2 -4 4 4 7 1
12 -6 13 -10 0 -10 2 0 6 6 2 9 10 6 15 -4 7 -2 8 4 4 7 -4 12 -3 12 1 0 11
50 10 67 0z m258 3 c-3 -5 0 -10 7 -11 10 0 10 -2 0 -6 -6 -2 -10 -8 -7 -13 2
-4 -12 -19 -33 -33 -37 -24 -39 -24 -50 -6 -7 10 -8 19 -3 19 5 0 11 -5 13
-12 6 -18 66 21 63 41 -3 17 3 31 11 31 3 0 2 -4 -1 -10z m85 6 c0 -3 -4 -8
-10 -11 -5 -3 -10 -1 -10 4 0 6 5 11 10 11 6 0 10 -2 10 -4z m51 -13 c13 -16
12 -17 -3 -4 -16 12 -18 11 -19 -10 0 -13 -3 -18 -6 -11 -5 12 2 42 10 42 3 0
11 -8 18 -17z m-1062 -14 c-7 -4 -16 -6 -20 -3 -4 2 -10 0 -14 -6 -3 -5 -1
-10 6 -10 7 0 10 -3 6 -6 -10 -10 -26 6 -21 20 3 7 17 14 31 14 17 0 21 -3 12
-9z m971 1 c0 -5 -4 -10 -10 -10 -5 0 -10 5 -10 10 0 6 5 10 10 10 6 0 10 -4
10 -10z m-938 -7 c-6 -2 -10 -9 -7 -14 4 -5 -2 -6 -12 -2 -15 6 -16 4 -5 -9
10 -12 10 -18 -2 -27 -10 -9 -16 -8 -26 4 -9 10 -9 15 -1 15 6 0 11 -5 11 -11
0 -5 5 -7 10 -4 8 5 8 11 0 20 -8 10 -7 16 7 24 10 6 23 10 28 10 6 0 4 -3 -3
-6z m796 -2 c11 -7 10 -9 -3 -14 -9 -4 -14 -3 -10 2 3 5 -1 12 -7 14 -7 3 -8
6 -3 6 6 0 16 -3 23 -8z m57 -12 c-4 -5 -12 -9 -18 -8 -9 0 -8 2 1 6 6 2 9 10
6 15 -4 7 -2 8 5 4 6 -4 9 -12 6 -17z m200 11 c-3 -5 -14 -10 -23 -9 -14 0
-13 2 3 9 27 11 27 11 20 0z m-961 -9 c3 -4 0 -13 -6 -21 -8 -12 -9 -12 -5 2
4 12 0 16 -14 15 -11 -1 -19 -9 -19 -20 0 -10 4 -16 9 -12 5 3 12 1 15 -4 4
-5 -2 -8 -11 -7 -19 3 -27 20 -20 39 5 14 44 20 51 8z m120 0 c3 -5 -6 -8 -20
-8 -19 0 -22 2 -13 8 18 11 26 11 33 0z m216 4 c0 -2 -10 -9 -22 -15 -22 -11
-22 -10 -4 4 21 17 26 19 26 11z m108 -45 c3 -7 0 -10 -6 -6 -16 10 -46 -24
-33 -37 6 -6 11 -16 11 -21 0 -6 -8 1 -17 14 -10 14 -18 28 -18 32 0 3 -3 10
-8 14 -4 4 0 16 10 26 14 16 19 16 37 5 11 -8 22 -20 24 -27z m417 30 c-3 -5
-2 -10 4 -10 5 0 12 5 14 10 3 6 4 5 3 -2 -3 -17 -28 -17 -33 0 -3 6 0 12 7
12 6 0 8 -4 5 -10z m-1056 -3 c-2 -1 -13 -9 -24 -17 -19 -14 -19 -14 -6 3 7 9
18 17 24 17 6 0 8 -1 6 -3z m265 -3 c12 -5 9 -11 -15 -31 -17 -15 -28 -32 -25
-40 3 -8 1 -11 -4 -8 -6 3 -10 0 -11 -7 0 -11 -2 -11 -6 0 -4 10 -9 10 -23 -3
-22 -20 -35 -4 -20 25 6 11 13 20 16 20 3 0 3 -4 -1 -9 -3 -5 -1 -12 5 -16 5
-3 10 -1 10 4 0 6 8 11 18 11 9 0 13 4 7 8 -5 4 -11 16 -13 27 -2 18 -1 18 11
-3 l13 -23 20 22 19 22 -25 -7 c-19 -6 -21 -5 -10 3 18 13 15 12 34 5z m516
-5 c0 -5 -4 -8 -10 -4 -5 3 -16 -8 -25 -25 -18 -36 -22 -37 -20 -9 2 31 55 67
55 38z m428 -6 c-1 -5 4 -19 11 -32 7 -13 8 -20 2 -17 -13 8 -45 -39 -36 -54
3 -5 2 -10 -4 -10 -19 0 -22 19 -7 48 15 29 10 48 -11 47 -6 0 -15 -4 -20 -9
-4 -5 -3 -6 4 -3 15 9 22 -12 13 -38 -4 -11 -6 -38 -5 -61 l3 -40 -61 1 c-53
1 -66 5 -88 27 -18 18 -23 30 -16 37 7 7 6 15 -2 25 -21 25 -3 40 25 21 13 -8
24 -12 24 -8 1 5 11 21 24 36 15 18 28 26 39 21 13 -5 14 -10 6 -26 -9 -16 -8
-19 2 -13 9 6 11 3 6 -8 -5 -14 -3 -15 14 -4 16 10 17 13 4 15 -34 7 -2 44 33
37 12 -2 24 0 27 6 7 11 16 12 13 2z m-1173 -13 c7 -12 -2 -12 -30 0 -19 8
-19 9 2 9 12 1 25 -3 28 -9z m98 -13 c4 3 7 1 7 -5 0 -17 -20 -15 -26 3 -5 13
-9 13 -23 3 -14 -12 -15 -11 -2 5 13 17 16 17 26 3 7 -9 15 -13 18 -9z m917
-2 c-7 -8 -17 -15 -23 -15 -6 0 -2 7 9 15 25 19 30 19 14 0z m-935 -75 c-26
-27 -30 -28 -46 -15 -19 19 -36 16 -63 -7 -19 -17 -21 -17 -43 4 -13 12 -23
26 -23 32 0 6 4 5 9 -3 5 -7 11 -9 14 -4 4 6 19 9 34 8 15 -1 34 3 42 9 11 8
13 8 7 -1 -9 -16 -1 -16 24 -3 16 9 19 8 14 -7 -3 -11 3 -8 17 10 15 18 26 24
33 17 7 -7 0 -20 -19 -40z m170 40 c3 -5 2 -10 -4 -10 -5 0 -13 5 -16 10 -3 6
-2 10 4 10 5 0 13 -4 16 -10z m657 -17 c-6 -2 -10 -9 -7 -14 4 -5 -2 -6 -12
-2 -16 6 -17 5 -3 -11 13 -17 15 -17 32 4 10 13 22 20 25 16 4 -4 1 -11 -7
-17 -12 -8 -10 -14 15 -35 17 -15 23 -23 15 -19 -8 5 -23 15 -32 23 -9 7 -21
11 -27 8 -5 -3 -16 0 -24 8 -8 8 -16 14 -19 13 -2 -1 5 6 15 16 11 9 24 17 31
16 7 0 6 -2 -2 -6z m-328 -21 c3 -5 -1 -9 -9 -9 -8 0 -12 4 -9 9 3 4 7 8 9 8
2 0 6 -4 9 -8z m816 -51 c0 -5 -10 -11 -22 -14 -21 -5 -21 -5 -6 7 10 7 14 17
10 21 -4 5 -1 5 6 1 6 -4 12 -11 12 -15z m-456 -6 c11 -8 16 -15 10 -15 -5 0
-18 7 -28 15 -11 8 -16 15 -10 15 5 0 18 -7 28 -15z m1770 -188 c-2 -7 -14
-19 -27 -26 -21 -13 -21 -12 2 13 27 29 33 32 25 13z m173 -462 c0 -8 -4 -12
-9 -9 -5 3 -6 10 -3 15 9 13 12 11 12 -6z m-67 -40 c0 -1 -10 -10 -22 -21 -14
-12 -18 -13 -10 -3 6 9 10 18 7 21 -3 2 2 5 10 5 8 0 15 -1 15 -2z m-142 -235
c-12 -19 -28 -18 -28 1 0 6 5 7 12 3 7 -5 9 -2 5 9 -4 11 -2 14 8 11 11 -5 12
-10 3 -24z m-13 -50 c-5 -16 -3 -19 12 -13 19 7 18 5 -8 -15 -14 -10 -16 -9
-14 10 4 35 5 38 11 38 3 0 3 -9 -1 -20z m12 -897 c3 -7 -4 -16 -15 -22 -16
-9 -19 -7 -17 12 1 12 3 24 4 25 2 7 25 -5 28 -15z m47 -278 c-4 -8 -11 -15
-16 -15 -6 0 -5 6 2 15 7 8 14 15 16 15 2 0 1 -7 -2 -15z m103 2 c4 -5 4 -7
-2 -6 -5 2 -21 -1 -34 -5 -16 -5 -28 -4 -37 6 -12 12 -9 14 25 13 22 0 43 -4
48 -8z m-77 -307 c-5 -9 -6 -21 -2 -25 4 -5 1 -5 -6 -1 -7 4 -10 11 -7 16 3 5
1 11 -5 15 -17 11 -11 23 10 18 15 -4 17 -9 10 -23z m-34 -296 c1 -9 0 -13 -4
-10 -3 4 -7 14 -8 22 -1 9 0 13 4 10 3 -4 7 -14 8 -22z m132 -329 c-3 -3 -9 2
-12 12 -6 14 -5 15 5 6 7 -7 10 -15 7 -18z m32 -30 c7 -8 9 -15 6 -15 -4 0
-14 7 -22 15 -9 8 -11 15 -6 15 5 0 15 -7 22 -15z"/>
<path d="M3750 5967 c-21 -8 -22 -11 -7 -14 10 -3 14 -9 10 -16 -4 -7 1 -6 10
2 9 7 17 10 17 5 0 -4 5 -3 11 3 6 6 17 9 24 7 7 -3 16 0 21 7 4 8 3 10 -4 5
-7 -4 -18 -4 -24 1 -19 11 -30 11 -58 0z m45 -6 c-9 -8 -36 -10 -30 -2 2 4 11
8 20 8 8 0 13 -3 10 -6z"/>
<path d="M3883 5934 c-7 -15 -7 -22 -1 -18 6 4 8 1 6 -7 -3 -8 -11 -13 -17
-11 -9 2 -9 -3 -2 -16 19 -36 34 -42 58 -22 19 15 20 20 9 29 -11 9 -16 9 -22
0 -4 -8 -3 -9 4 -5 8 5 10 1 5 -10 -5 -15 -7 -15 -16 1 -8 14 -11 15 -19 4 -8
-11 -9 -11 -5 1 2 8 10 14 16 12 7 -1 10 7 7 23 -3 15 -1 23 5 20 5 -4 7 -11
4 -16 -4 -5 -1 -9 4 -9 16 0 13 15 -7 33 -16 14 -18 14 -29 -9z"/>
<path d="M3656 5913 c-8 -21 -1 -27 17 -16 12 6 13 10 2 20 -10 10 -15 9 -19
-4z"/>
<path d="M3230 5839 c0 -5 5 -7 10 -4 6 3 10 8 10 11 0 2 -4 4 -10 4 -5 0 -10
-5 -10 -11z"/>
<path d="M4150 5893 c0 -5 -11 -21 -24 -38 -22 -28 -24 -28 -41 -12 -23 24
-33 13 -11 -12 20 -22 73 -27 55 -5 -6 8 -10 14 -8 15 31 6 38 6 34 -1 -3 -5
-2 -10 2 -13 5 -2 3 -3 -3 -1 -6 1 -11 -3 -12 -9 -2 -27 -9 -47 -17 -54 -4 -5
-5 -2 0 6 6 11 4 13 -8 8 -10 -4 -18 1 -22 14 -4 10 -11 19 -16 19 -16 0 -10
-16 14 -38 22 -21 41 -23 64 -9 6 4 14 1 17 -5 2 -7 4 -2 3 11 -1 13 4 26 12
29 8 3 11 0 7 -7 -4 -6 -3 -19 3 -28 8 -15 10 -12 9 15 -1 31 -20 44 -33 22
-8 -13 -25 -13 -25 -1 0 5 9 13 20 16 18 6 18 8 5 21 -9 10 -13 24 -9 40 4 14
2 24 -5 24 -6 0 -11 -3 -11 -7z m5 -112 c3 -5 2 -12 -3 -15 -5 -3 -9 1 -9 9 0
17 3 19 12 6z"/>
<path d="M4264 5880 c0 -13 4 -16 10 -10 7 7 7 13 0 20 -6 6 -10 3 -10 -10z"/>
<path d="M4205 5839 c-4 -6 -5 -12 -2 -15 2 -3 7 2 10 11 7 17 1 20 -8 4z"/>
<path d="M4105 5800 c-3 -5 1 -10 10 -10 9 0 13 5 10 10 -3 6 -8 10 -10 10 -2
0 -7 -4 -10 -10z"/>
<path d="M3177 5824 c-16 -21 -21 -23 -35 -12 -15 12 -16 11 -3 -5 14 -17 16
-17 40 7 14 14 23 27 20 30 -2 2 -12 -7 -22 -20z"/>
<path d="M3034 5809 c-8 -14 30 -19 43 -6 11 11 9 13 -13 13 -14 0 -27 -3 -30
-7z"/>
<path d="M5750 3880 c0 -5 5 -10 10 -10 6 0 10 5 10 10 0 6 -4 10 -10 10 -5 0
-10 -4 -10 -10z"/>
<path d="M3150 5996 c0 -2 7 -6 15 -10 8 -3 15 -1 15 4 0 6 -7 10 -15 10 -8 0
-15 -2 -15 -4z"/>
<path d="M4469 5988 c-1 -4 -2 -13 -3 -18 0 -6 -8 -15 -16 -20 -11 -7 -11 -10
-2 -10 7 0 11 -4 7 -10 -3 -5 -13 -6 -22 -3 -13 5 -15 3 -8 -13 4 -10 7 -27 7
-36 -1 -22 11 -23 28 -3 12 14 7 19 -13 16 -5 -1 -7 4 -5 10 2 7 11 13 20 15
12 1 15 -3 11 -14 -4 -10 -3 -14 2 -10 4 4 14 3 22 -3 9 -8 13 -8 13 -1 0 6
-5 14 -10 17 -6 4 -7 11 -4 17 5 8 -1 9 -17 5 -23 -6 -23 -5 -5 8 11 8 23 15
28 15 4 0 8 5 8 11 0 5 -4 8 -8 5 -4 -2 -14 -1 -21 3 -10 6 -9 10 4 14 9 4 14
3 11 -1 -3 -5 1 -9 9 -9 8 0 12 4 9 9 -3 4 0 8 5 8 6 0 11 -6 11 -12 0 -9 4
-8 10 2 8 12 10 12 10 1 0 -10 3 -11 14 -2 10 8 15 9 18 1 2 -7 9 -6 21 2 16
12 7 14 -57 14 -42 0 -77 -4 -77 -8z m21 -32 c0 -2 -7 -7 -16 -10 -8 -3 -12
-2 -9 4 6 10 25 14 25 6z"/>
<path d="M4630 5990 c0 -5 5 -10 10 -10 6 0 10 5 10 10 0 6 -4 10 -10 10 -5 0
-10 -4 -10 -10z"/>
<path d="M4667 5987 c3 -4 11 -6 19 -3 8 3 14 1 14 -5 0 -6 7 -6 19 1 11 5 27
7 35 4 9 -3 16 -2 16 3 0 5 -25 9 -54 9 -30 0 -52 -4 -49 -9z"/>
<path d="M4785 5990 c3 -4 30 -6 62 -5 32 1 66 -2 75 -6 10 -6 18 -5 20 3 3 9
6 9 12 0 4 -7 2 -12 -3 -12 -6 0 -11 -4 -11 -8 0 -4 9 -8 20 -8 15 0 19 5 14
21 -4 16 -3 17 5 5 10 -13 11 -13 11 0 0 9 3 11 8 5 4 -5 12 -11 17 -11 6 -1
19 -4 30 -8 15 -4 21 -1 22 12 1 16 -11 17 -142 18 -79 0 -142 -3 -140 -6z"/>
<path d="M5086 5989 c2 -4 1 -9 -3 -12 -5 -2 -1 -2 7 0 38 11 54 12 71 2 13
-7 19 -6 19 1 0 6 5 8 11 5 13 -9 -20 -34 -52 -38 -13 -2 -25 -10 -27 -17 -3
-8 0 -10 7 -6 7 4 10 2 9 -5 -2 -6 3 -14 10 -16 7 -3 10 1 6 10 -8 21 14 31
32 16 13 -11 15 -10 12 7 -3 20 11 23 45 9 13 -6 16 -3 11 9 -3 8 -11 14 -16
13 -6 -1 -12 4 -13 11 -2 8 -1 8 2 1 4 -8 7 -8 13 1 6 9 12 9 30 0 12 -6 24
-9 28 -6 3 3 0 6 -7 6 -7 0 -10 4 -7 8 3 5 -40 8 -94 8 -54 0 -97 -3 -94 -7z"/>
<path d="M5293 5958 c0 -32 2 -36 15 -26 11 10 17 8 28 -7 8 -10 12 -26 9 -35
-3 -11 1 -16 15 -16 24 0 25 5 5 33 -10 14 -12 24 -5 28 5 3 10 11 10 18 0 8
-3 8 -11 0 -16 -16 -48 -4 -46 18 1 10 5 19 10 19 5 0 6 -7 3 -16 -3 -8 -2
-12 4 -9 6 3 10 1 10 -5 0 -7 7 -5 16 4 18 19 28 21 18 4 -5 -7 -3 -8 6 -3 9
6 11 4 5 -6 -7 -11 -5 -11 10 1 17 13 18 13 10 0 -7 -12 -6 -13 6 -4 8 6 22
10 31 9 9 -2 22 3 29 11 9 11 15 11 25 3 11 -9 14 -8 14 2 0 11 2 11 10 -1 9
-13 10 -13 10 0 0 13 1 13 10 0 5 -8 7 -24 4 -35 -6 -19 -5 -19 12 -3 15 15
15 20 4 35 -13 17 -13 17 5 1 16 -15 16 -19 4 -34 -12 -16 -12 -17 2 -12 9 4
22 1 28 -5 15 -15 14 6 -1 22 -11 11 -10 14 0 18 6 3 9 9 6 15 -4 5 3 5 16 -2
12 -6 24 -9 28 -6 3 3 0 6 -7 6 -7 0 -10 3 -7 8 2 4 -73 7 -168 7 l-173 0 0
-37z m172 22 c-5 -8 -72 -7 -79 1 -3 2 15 5 39 5 24 0 42 -3 40 -6z"/>
<path d="M5652 5983 c2 -12 -4 -18 -17 -19 -36 -2 -39 -4 -28 -15 7 -7 25 -3
62 15 42 22 55 24 72 15 11 -6 23 -8 27 -5 3 3 0 6 -7 6 -7 0 -10 4 -7 8 3 5
-12 9 -34 9 -22 0 -37 -4 -34 -9 3 -4 0 -8 -5 -8 -6 0 -11 5 -11 10 0 6 -5 10
-10 10 -6 0 -10 -8 -8 -17z"/>
<path d="M5774 5983 c7 -18 -11 -25 -34 -13 -15 8 -30 5 -69 -15 -27 -13 -52
-29 -56 -35 -4 -6 -12 -7 -18 -3 -7 4 -23 8 -37 8 -20 0 -25 5 -23 25 2 21 1
22 -7 8 -7 -10 -17 -15 -27 -11 -9 4 -14 2 -10 -3 3 -6 1 -16 -4 -24 -8 -13
-10 -13 -19 0 -7 11 -4 19 12 31 13 10 17 19 10 23 -6 3 -14 0 -19 -8 -4 -8
-19 -13 -32 -12 -14 0 -25 -5 -27 -14 -1 -8 -5 -22 -8 -30 -5 -11 0 -16 15
-17 15 -1 18 1 10 11 -8 9 -7 18 3 31 12 17 13 17 14 -1 1 -11 2 -27 3 -37 0
-15 3 -16 15 -7 11 10 17 10 30 -1 13 -11 15 -11 14 2 -4 26 0 39 11 39 8 0 8
-4 0 -14 -9 -11 -9 -15 1 -18 7 -3 18 2 24 10 9 13 11 12 11 -2 0 -9 -4 -16
-9 -16 -4 0 -8 -4 -8 -8 0 -4 9 -8 20 -8 15 0 19 5 14 21 -4 16 -3 17 5 5 10
-13 11 -13 11 0 0 13 1 13 10 0 13 -20 12 -39 -1 -20 -8 13 -10 12 -7 -4 2
-11 12 -20 22 -22 10 -1 22 -8 26 -14 5 -8 9 -6 14 5 9 23 8 25 -8 19 -20 -8
-30 14 -16 31 10 11 10 15 1 15 -7 0 -9 5 -5 11 4 8 9 7 15 -2 8 -13 13 -5 9
16 -1 5 7 2 18 -8 27 -25 39 -21 16 5 -19 22 -19 22 0 8 18 -14 19 -13 13 3
-4 11 -3 16 3 12 6 -3 10 -1 10 4 0 6 5 11 11 11 8 0 8 -5 -1 -15 -15 -18 0
-20 20 -2 12 10 12 9 1 -5 -18 -23 -7 -23 27 1 15 11 36 21 47 23 11 2 23 8
27 13 5 6 8 5 8 -4 0 -11 3 -11 18 0 14 11 15 11 5 -1 -7 -8 -13 -19 -13 -24
1 -6 9 -1 19 11 15 18 20 20 25 8 3 -8 3 -21 0 -29 -3 -8 1 -17 8 -22 7 -4 10
-4 6 1 -4 4 -3 14 3 22 7 8 8 18 3 26 -5 7 -2 5 7 -5 16 -16 17 -16 27 5 7 14
11 17 11 7 1 -13 2 -13 12 0 8 12 9 10 4 -7 -3 -12 -2 -24 3 -26 4 -3 9 7 10
21 l2 27 -115 0 c-88 1 -114 -2 -111 -12z"/>
<path d="M3535 5970 c4 -6 1 -19 -6 -28 -11 -13 -9 -13 8 2 22 18 22 36 2 36
-6 0 -7 -5 -4 -10z"/>
<path d="M4602 5971 c-7 -4 -28 -7 -47 -6 -33 2 -43 -7 -51 -42 -1 -7 9 -19
22 -28 29 -19 31 -7 4 22 -16 18 -17 22 -5 27 8 3 22 2 32 -1 12 -5 14 -3 8 7
-5 8 -4 11 3 6 6 -4 8 -14 5 -24 -6 -15 -5 -15 11 -3 13 11 19 12 29 2 9 -10
8 -15 -7 -27 -30 -21 -6 -17 33 7 18 11 31 23 27 26 -3 3 -14 0 -23 -8 -17
-13 -17 -13 -3 5 13 18 13 19 0 14 -8 -3 -24 -2 -34 2 -17 6 -18 7 -3 13 9 3
17 2 17 -4 0 -6 8 -5 21 2 15 8 19 8 15 0 -5 -7 1 -10 16 -8 19 2 22 -2 20
-23 -4 -24 -3 -24 11 -5 9 11 13 23 11 26 -2 4 2 9 10 12 9 4 12 -2 10 -20 -1
-14 -5 -27 -8 -30 -3 -4 -1 -12 5 -20 9 -9 8 -17 -1 -27 -9 -12 -8 -15 9 -13
12 1 21 2 21 3 0 2 -4 13 -9 27 -6 15 -6 29 1 38 8 11 9 11 5 -3 -3 -9 0 -19
7 -21 8 -3 13 4 13 23 0 19 -5 26 -14 23 -7 -3 -13 0 -13 7 0 6 4 9 9 6 5 -4
12 0 14 6 4 10 6 10 6 0 1 -8 6 -10 13 -6 17 10 68 12 68 3 0 -5 8 -6 18 -3
13 5 14 4 3 -4 -9 -7 -23 -7 -38 -1 -30 11 -30 11 -30 -3 0 -7 -2 -19 -4 -27
-2 -7 2 -16 9 -18 7 -3 10 1 6 10 -7 19 13 32 29 18 7 -5 18 -6 26 -2 7 5 23
7 37 5 27 -3 31 8 10 28 -12 12 -119 16 -221 8 -5 -1 -28 1 -51 4 -22 2 -46 1
-52 -3z m313 -11 c3 -5 1 -10 -4 -10 -6 0 -11 5 -11 10 0 6 2 10 4 10 3 0 8
-4 11 -10z"/>
<path d="M5094 5967 c-25 -14 -67 -15 -77 -2 -5 5 -6 1 -1 -10 9 -26 9 -45 -1
-69 -8 -19 -8 -19 12 0 11 10 18 22 17 25 -2 3 3 6 10 6 8 0 12 -6 9 -14 -3
-8 0 -11 9 -8 19 8 18 46 -2 40 -8 -2 -22 0 -30 5 -10 6 -1 8 27 5 24 -2 45 1
49 6 3 5 10 7 15 4 5 -4 9 -2 9 4 0 6 8 8 18 4 9 -3 14 -3 10 2 -12 13 -53 14
-74 2z"/>
<path d="M5249 5961 c16 -28 14 -34 -9 -28 -10 3 -27 -1 -37 -9 -17 -13 -17
-13 0 -14 9 0 17 6 17 13 0 9 2 9 9 -1 10 -17 17 -16 39 6 21 19 19 27 -9 43
-19 9 -19 9 -10 -10z"/>
<path d="M3670 5960 c0 -5 5 -10 10 -10 6 0 10 5 10 10 0 6 -4 10 -10 10 -5 0
-10 -4 -10 -10z"/>
<path d="M4987 5955 c-9 -23 -9 -27 2 -20 5 3 13 0 17 -6 4 -8 3 -9 -4 -5 -7
4 -12 2 -12 -3 0 -6 7 -11 15 -11 18 0 18 8 1 39 -11 20 -14 21 -19 6z"/>
<path d="M5792 5954 c-16 -6 -33 -17 -36 -23 -4 -6 -18 -8 -33 -5 -18 5 -24 4
-19 -5 4 -6 12 -9 17 -6 5 4 12 0 15 -9 3 -8 12 -12 21 -9 12 5 12 7 1 14 -9
6 -6 8 10 6 12 0 22 -5 22 -9 0 -4 4 -8 8 -8 4 0 8 9 8 20 0 15 -5 19 -21 14
-16 -4 -17 -3 -5 5 8 6 23 8 34 5 14 -5 16 -3 10 7 -6 12 -5 12 9 0 15 -11 17
-11 17 1 0 18 -19 19 -58 2z"/>
<path d="M5890 5961 c0 -10 -39 -27 -52 -23 -5 1 -8 -3 -8 -9 0 -5 -4 -7 -10
-4 -5 3 -10 1 -10 -5 0 -7 6 -10 13 -7 6 2 20 -2 30 -11 19 -17 23 -3 5 18
-10 11 -9 11 6 0 18 -14 19 -13 13 5 -6 18 -6 19 6 3 12 -16 14 -14 14 12 0
17 -2 30 -4 30 -1 0 -3 -4 -3 -9z"/>
<path d="M5957 5956 c-9 -23 -9 -27 1 -23 4 1 8 -2 10 -8 2 -5 -1 -11 -6 -13
-6 -2 -13 6 -17 18 -3 11 -11 18 -16 15 -5 -4 -5 -13 0 -23 4 -9 6 -24 3 -32
-4 -13 -3 -13 11 -2 19 16 41 6 33 -14 -3 -8 0 -14 6 -14 7 0 6 -6 -3 -17 -11
-15 -11 -16 1 -5 14 12 22 92 9 92 -3 0 -10 10 -16 22 -8 20 -10 20 -16 4z"/>
<path d="M4241 5936 c-10 -11 -9 -14 1 -12 14 2 23 15 15 22 -2 2 -10 -2 -16
-10z"/>
<path d="M4310 5940 c-9 -6 -10 -10 -3 -10 6 0 15 5 18 10 8 12 4 12 -15 0z"/>
<path d="M4789 5943 c-1 -5 -2 -31 -3 -59 -2 -37 1 -51 11 -51 7 0 12 7 11 16
-2 11 4 15 19 14 16 -2 21 2 17 12 -4 9 6 19 28 30 30 15 31 15 13 0 -20 -16
-20 -17 5 -13 20 2 25 -1 23 -17 -1 -14 4 -21 17 -22 16 -1 17 1 5 24 -7 14
-11 33 -8 42 4 12 3 13 -5 2 -7 -9 -12 -10 -16 -2 -5 8 -13 8 -26 1 -13 -7
-21 -7 -25 0 -9 15 -28 12 -22 -3 10 -27 -8 -39 -28 -17 -14 16 -15 22 -5 35
8 10 9 15 1 15 -6 0 -12 -3 -12 -7z"/>
<path d="M4941 5924 c-10 -22 -9 -25 6 -20 10 3 25 1 33 -4 12 -8 9 -9 -10 -8
-28 3 -36 -22 -10 -30 13 -5 13 -3 0 14 -14 18 -14 18 3 5 9 -7 17 -10 17 -5
0 5 7 -2 16 -14 13 -19 19 -21 30 -11 12 10 17 9 27 0 9 -10 9 -11 -4 -6 -10
4 -16 0 -16 -10 0 -10 6 -14 15 -10 19 7 32 -3 26 -20 -5 -13 -9 -13 -27 0
-27 19 -38 19 -31 0 4 -8 9 -13 13 -11 4 3 13 1 21 -4 9 -5 19 -5 26 1 16 13
29 -8 15 -24 -8 -10 -4 -13 14 -13 14 0 25 4 25 9 0 4 6 5 13 0 6 -4 33 -8 60
-9 36 0 47 3 45 14 -2 8 3 17 10 19 7 3 12 1 11 -4 -3 -19 2 -33 12 -33 8 0 8
4 0 13 -7 10 -7 17 0 24 8 8 7 13 -2 18 -8 6 -10 4 -4 -5 5 -8 4 -11 -3 -6 -6
4 -8 14 -5 23 4 10 2 14 -5 9 -6 -3 -15 2 -21 11 -9 16 -10 16 -11 1 0 -9 5
-20 10 -23 6 -3 10 -11 10 -18 0 -6 -7 -2 -15 9 -13 16 -14 16 -9 2 7 -19 -10
-25 -21 -8 -4 6 -16 3 -32 -10 -14 -11 -30 -17 -37 -13 -6 4 -1 10 14 14 14 4
22 8 18 9 -21 6 -34 5 -40 -5 -5 -6 -8 -4 -8 5 0 11 -3 11 -8 3 -5 -8 -15 2
-30 27 l-22 39 21 12 c15 8 19 8 15 0 -4 -6 -3 -11 3 -11 5 0 13 5 16 10 4 6
11 8 16 4 5 -3 7 -10 4 -15 -8 -12 6 -11 25 1 13 9 13 10 0 10 -13 0 -13 2 0
11 12 9 12 10 -4 5 -12 -4 -27 1 -43 15 -12 13 -23 17 -23 11 0 -7 6 -12 13
-12 6 -1 1 -7 -12 -14 -13 -7 -33 -11 -45 -9 -17 4 -18 3 -6 -6 13 -9 13 -11
-2 -11 -31 0 -33 1 -32 15 1 8 -7 17 -17 20 -11 4 -16 11 -13 17 5 8 1 9 -11
4 -15 -5 -16 -4 -5 9 7 8 8 15 3 15 -5 0 -15 -12 -22 -26z m287 -140 c5 3 9 0
9 -7 0 -7 -15 -13 -34 -13 -35 -1 -40 5 -21 24 8 8 15 8 24 1 7 -6 17 -8 22
-5z m-104 -3 c3 -5 -1 -11 -9 -14 -9 -4 -12 -1 -8 9 6 16 10 17 17 5z"/>
<path d="M5186 5782 c-3 -5 1 -9 9 -9 8 0 12 4 9 9 -3 4 -7 8 -9 8 -2 0 -6 -4
-9 -8z"/>
<path d="M5390 5941 c0 -6 -3 -10 -7 -10 -20 3 -22 -3 -8 -25 8 -13 13 -30 10
-38 -4 -9 0 -15 10 -15 18 0 18 2 5 28 -7 13 -7 25 0 38 7 13 7 22 0 26 -5 3
-10 1 -10 -4z"/>
<path d="M4540 5930 c8 -5 11 -10 6 -10 -5 0 -1 -8 8 -19 15 -16 15 -19 2 -24
-9 -4 -18 -2 -21 4 -7 10 -25 3 -25 -11 0 -7 25 -7 55 0 17 4 35 0 34 -7 -3
-19 2 -36 8 -30 10 11 13 58 2 52 -14 -9 -29 4 -23 20 4 8 10 12 15 9 5 -3 9
0 9 5 0 14 -13 14 -26 1 -8 -8 -15 -6 -24 5 -7 8 -18 15 -24 15 -6 0 -4 -5 4
-10z"/>
<path d="M4705 5909 c-11 -20 -21 -29 -31 -25 -11 4 -14 1 -9 -13 7 -23 -6
-33 -25 -20 -12 8 -12 12 -2 16 6 2 12 11 12 20 0 10 6 12 20 8 21 -7 25 1 12
22 -11 17 -53 -21 -56 -51 -1 -14 -11 -35 -21 -46 -13 -15 -16 -23 -8 -31 6
-6 9 -19 6 -28 -4 -14 -3 -14 6 -1 6 8 8 22 6 31 -3 8 2 24 10 35 15 19 15 19
8 -1 -6 -17 -5 -18 9 -7 8 7 22 10 30 7 11 -5 15 0 13 18 -2 15 5 28 19 37 18
11 19 11 9 -1 -13 -16 -7 -59 9 -59 5 0 5 8 -1 18 -7 13 -6 23 1 30 9 9 9 15
0 24 -7 7 -8 17 -1 30 5 10 7 18 5 18 -3 0 -13 -14 -21 -31z"/>
<path d="M3424 5918 c3 -9 0 -19 -7 -22 -13 -5 18 -10 43 -6 12 1 13 -1 3 -11
-7 -7 -13 -17 -13 -22 0 -5 9 1 20 14 10 13 19 18 20 12 0 -7 5 -13 10 -13 6
0 5 8 -2 20 -7 11 -18 18 -25 16 -7 -3 -17 3 -23 12 -9 14 -10 13 -5 -8 l6
-25 -16 25 c-9 14 -14 17 -11 8z"/>
<path d="M5150 5919 c0 -5 5 -7 10 -4 9 6 14 -8 11 -28 -1 -5 9 -6 21 -2 16 4
19 3 10 -3 -8 -5 -13 -13 -12 -18 1 -5 -4 -10 -12 -12 -9 -2 -8 0 2 7 19 14 5
14 -21 0 -11 -5 -17 -14 -15 -18 3 -4 -1 -8 -8 -8 -8 0 -12 10 -10 24 2 19 -1
22 -11 13 -7 -6 -21 -8 -31 -4 -14 4 -15 3 -6 -4 8 -5 14 -13 14 -18 0 -5 5
-8 10 -6 6 2 8 -3 5 -11 -3 -8 3 -13 19 -13 22 0 29 8 25 29 -1 5 3 6 9 2 6
-4 9 -13 8 -20 -2 -8 2 -13 7 -12 6 1 9 6 7 12 -2 5 5 2 15 -7 18 -16 19 -16
19 0 1 9 4 26 8 37 5 13 2 11 -8 -5 -18 -29 -22 -19 -5 12 9 17 7 24 -17 44
-32 26 -44 29 -44 13z"/>
<path d="M5261 5903 c-6 -14 -9 -28 -6 -31 3 -3 5 0 5 7 0 7 5 9 13 5 6 -4 9
-4 5 1 -4 4 -3 14 3 21 6 7 6 15 1 18 -5 3 -14 -6 -21 -21z"/>
<path d="M5295 5911 c-16 -19 -16 -20 4 -18 15 1 20 6 16 17 -5 11 -3 12 5 4
9 -9 9 -17 1 -32 -14 -26 -14 -29 3 -29 12 0 14 21 7 70 -2 13 -17 8 -36 -12z"/>
<path d="M5647 5902 c-19 -21 -22 -32 -8 -32 5 0 13 10 16 21 6 17 9 18 16 8
4 -7 11 -11 14 -8 3 4 -1 11 -8 18 -11 8 -18 7 -30 -7z"/>
<path d="M4376 5902 c-2 -4 1 -14 8 -23 10 -14 13 -14 25 -2 11 12 10 14 -5
11 -11 -2 -18 2 -16 10 2 13 -4 16 -12 4z"/>
<path d="M5220 5904 c0 -2 7 -19 16 -38 16 -32 18 -33 33 -17 9 9 12 11 7 3
-7 -9 -5 -16 3 -21 7 -5 12 -11 12 -15 -1 -3 0 -9 0 -13 1 -5 2 -15 3 -23 0
-8 7 -14 15 -12 7 1 19 -3 27 -9 10 -8 14 -8 14 0 0 6 -5 11 -11 11 -5 0 -7 5
-3 11 4 7 -2 7 -17 -1 l-24 -12 23 21 c25 25 29 43 7 35 -8 -4 -12 -10 -9 -15
3 -5 -2 -6 -10 -3 -18 7 -11 24 10 24 8 0 14 5 14 10 0 6 -6 9 -12 8 -8 -2
-12 6 -10 22 1 14 -1 21 -5 15 -5 -5 -14 -11 -20 -12 -7 -2 -19 -4 -25 -5 -8
-2 -12 6 -11 18 1 12 -4 21 -12 21 -8 0 -15 -2 -15 -3z"/>
<path d="M5695 5892 c-3 -8 -12 -11 -20 -8 -8 3 -15 1 -15 -3 0 -5 4 -11 10
-13 5 -1 0 -14 -10 -28 -19 -25 -19 -25 -34 -5 -9 11 -16 16 -16 12 0 -5 -10
-1 -22 7 -26 19 -38 20 -38 5 0 -5 6 -7 13 -3 8 5 8 2 -2 -9 -15 -19 -1 -23
17 -5 9 9 12 9 12 -1 0 -8 6 -11 16 -7 9 3 12 2 9 -5 -4 -5 -15 -7 -25 -4 -14
4 -18 1 -16 -12 2 -10 11 -19 22 -21 16 -3 17 -1 4 8 -12 9 -10 10 9 5 17 -5
22 -4 16 5 -5 9 -4 11 3 6 15 -9 75 22 67 34 -3 6 -1 18 4 27 8 14 10 15 11 3
0 -13 1 -13 11 0 8 12 9 11 5 -5 -5 -17 -1 -21 19 -23 25 -2 25 -2 5 18 -11
11 -20 24 -20 28 0 15 -29 9 -35 -6z"/>
<path d="M5817 5899 c-9 -6 -21 -8 -26 -5 -12 8 -41 -4 -41 -16 0 -5 4 -7 9
-4 5 3 11 -1 15 -9 5 -15 -29 -41 -37 -27 -2 4 -2 0 1 -8 7 -22 6 -42 -3 -64
-7 -15 -5 -17 13 -12 27 9 38 -11 18 -33 -16 -17 -16 -19 0 -25 12 -4 15 -2
10 9 -3 8 -2 14 2 14 4 -1 14 -1 22 0 13 1 13 2 0 11 -9 6 -11 10 -3 10 7 0
10 7 6 16 -5 13 -8 13 -15 2 -7 -10 -8 -8 -4 5 4 11 1 17 -7 15 -7 -2 -13 2
-14 7 0 6 3 9 8 8 15 -5 10 15 -6 25 -13 7 -11 11 11 21 22 10 29 9 35 -1 5
-7 9 -11 10 -8 0 3 2 16 5 29 4 20 2 22 -10 11 -16 -13 -36 -6 -36 13 0 7 4 6
10 -3 7 -11 12 -12 21 -3 8 8 18 9 31 2 21 -11 25 3 5 19 -8 7 -18 7 -30 1z"/>
<path d="M5871 5882 c-14 -29 -14 -29 4 -29 11 0 14 7 9 21 -3 12 -2 16 3 10
6 -8 14 -5 27 7 19 19 19 19 -7 17 -16 -1 -30 -11 -36 -26z"/>
<path d="M3547 5887 c-3 -8 1 -14 8 -14 7 0 11 6 8 14 -3 7 -6 13 -8 13 -2 0
-5 -6 -8 -13z"/>
<path d="M3730 5879 c-7 -11 -9 -23 -6 -27 3 -3 6 0 6 7 0 16 17 5 31 -21 9
-16 8 -19 -2 -13 -8 6 -10 4 -4 -5 6 -9 4 -11 -5 -5 -9 6 -11 4 -5 -5 5 -8 4
-11 -1 -7 -6 3 -11 -4 -11 -16 -2 -21 -1 -21 17 3 21 27 26 21 9 -13 -10 -21
-10 -21 6 -2 8 11 13 25 10 33 -2 7 2 15 11 19 12 5 9 10 -16 26 -18 11 -29
25 -26 33 8 21 -2 16 -14 -7z"/>
<path d="M4452 5858 c-24 -22 -30 -33 -23 -42 6 -7 8 -16 4 -19 -3 -4 -1 -7 5
-7 7 0 12 -5 12 -11 0 -8 -5 -8 -15 1 -8 7 -12 16 -9 21 3 5 1 9 -5 9 -5 0
-13 -5 -16 -10 -5 -8 -11 -8 -20 0 -10 8 -15 8 -21 -2 -4 -7 -4 -10 1 -6 4 4
15 2 23 -4 8 -7 22 -13 31 -13 9 0 15 -6 13 -13 -4 -19 16 -5 29 20 6 12 7 18
1 14 -15 -9 -23 21 -9 32 12 11 51 -13 55 -33 1 -5 10 -10 20 -11 9 -1 19 -2
22 -3 3 -1 16 -4 29 -7 20 -4 22 -2 11 11 -10 12 -10 18 1 32 12 15 12 16 -2
11 -9 -4 -22 -1 -28 5 -8 8 -11 8 -11 0 0 -7 5 -15 10 -18 14 -9 12 -28 -2
-22 -7 2 -12 10 -10 17 1 7 -4 9 -15 6 -10 -3 -25 -1 -33 5 -12 8 -10 9 7 4
16 -4 22 -2 20 7 -2 7 -2 10 0 5 3 -4 10 -4 16 0 19 12 38 12 31 1 -4 -7 -2
-8 4 -4 19 11 3 37 -17 26 -10 -5 -26 -7 -37 -5 -10 2 -23 4 -27 4 -5 1 -6 5
-2 10 14 24 -14 17 -43 -11z m34 -3 c0 -16 -3 -22 -10 -15 -6 6 -17 4 -30 -7
-12 -10 -8 -3 8 15 17 17 30 32 31 32 0 0 1 -11 1 -25z"/>
<path d="M4763 5877 c4 -10 3 -27 -3 -37 -7 -13 -6 -19 4 -23 11 -4 14 3 11
29 -1 19 -6 38 -10 42 -5 4 -5 -1 -2 -11z"/>
<path d="M4855 5869 c7 -20 4 -21 -21 -16 -16 4 -23 4 -16 1 10 -5 10 -9 1
-20 -6 -8 -16 -11 -22 -7 -5 3 -7 1 -3 -5 3 -5 0 -12 -6 -15 -7 -2 -10 -8 -6
-11 3 -4 16 2 27 13 12 12 24 21 28 21 4 0 18 10 32 22 14 13 20 16 14 8 -19
-21 -16 -34 5 -19 15 13 16 12 4 -3 -9 -11 -10 -18 -2 -23 11 -7 11 -7 15 44
2 18 0 29 -4 23 -4 -7 -12 -8 -21 -2 -24 15 -32 12 -25 -11z"/>
<path d="M5412 5870 c3 -23 0 -25 -34 -22 -21 1 -38 0 -38 -2 0 -3 11 -16 25
-30 14 -14 25 -19 25 -13 0 7 -5 18 -10 23 -7 7 -6 11 4 11 8 0 13 -4 11 -8
-3 -4 2 -10 10 -13 11 -4 15 0 13 11 -2 10 3 18 10 19 25 3 27 4 15 12 -7 5 9
8 37 8 28 0 44 -3 37 -8 -12 -7 -2 -12 18 -8 5 1 2 -7 -8 -18 -19 -21 -22 -42
-7 -42 6 0 5 -6 -2 -14 -7 -8 -21 -12 -30 -10 -10 1 -18 -1 -18 -7 0 -12 34
-6 54 10 16 14 40 6 31 -10 -4 -5 -2 -9 3 -9 13 0 24 29 16 42 -3 5 -12 7 -20
4 -8 -3 -14 -1 -14 5 0 6 -5 7 -12 3 -6 -4 -8 -3 -5 4 4 5 17 8 30 5 17 -4 19
-3 7 6 -8 6 -15 14 -15 18 -1 4 -5 19 -9 32 -6 16 -11 20 -19 12 -7 -7 -14 -7
-23 0 -7 6 -19 7 -26 3 -18 -12 -42 -11 -51 1 -4 6 -6 -1 -5 -15z"/>
<path d="M5945 5880 c-3 -5 -12 -7 -20 -4 -7 3 -18 -3 -24 -14 -6 -12 -19 -19
-28 -17 -10 2 -22 4 -26 4 -5 1 -5 6 -1 13 4 7 3 8 -5 4 -6 -4 -9 -11 -6 -16
3 -5 1 -11 -5 -15 -17 -10 -11 -21 10 -21 11 0 19 5 16 11 -2 7 1 12 8 12 6 0
12 -12 11 -25 0 -22 -4 -26 -35 -26 -29 0 -35 4 -35 22 0 12 -3 22 -7 22 -5 0
-12 0 -17 0 -6 0 0 -18 11 -40 12 -22 26 -40 30 -40 5 0 7 4 3 9 -9 15 14 24
30 11 10 -8 16 -7 27 8 7 10 23 18 36 17 12 -1 21 3 19 9 -2 6 -12 11 -23 12
-34 2 -37 4 -24 19 7 9 16 12 19 8 3 -4 14 -14 23 -21 15 -12 17 -11 15 7 -1
14 -6 20 -15 16 -7 -2 -11 -1 -7 4 3 5 2 11 -2 14 -5 2 -2 2 5 1 16 -4 42 6
42 17 0 12 -17 12 -25 -1z"/>
<path d="M3585 5860 c-3 -6 1 -7 9 -4 18 7 21 14 7 14 -6 0 -13 -4 -16 -10z"/>
<path d="M3697 5848 c10 -12 12 -18 4 -18 -7 0 -9 -5 -6 -10 4 -6 11 -7 17 -4
7 4 8 2 4 -5 -14 -22 -13 -58 0 -58 9 0 10 5 3 19 -6 11 -6 18 0 18 10 0 8 34
-3 61 -4 9 -13 16 -21 16 -13 0 -12 -3 2 -19z"/>
<path d="M5702 5855 c2 -15 -11 -27 -55 -51 -43 -23 -55 -33 -45 -40 17 -13
49 -12 45 1 -1 6 -11 9 -21 7 -11 -1 -17 1 -13 4 12 12 72 12 80 0 4 -6 5 2 1
18 -6 25 -5 28 15 21 25 -7 26 1 5 35 -12 21 -14 22 -12 5z"/>
<path d="M4955 5846 c-18 -13 -17 -13 8 -13 16 0 24 4 20 10 -3 6 -1 7 6 3 6
-4 9 -12 6 -17 -4 -5 -1 -9 4 -9 14 0 14 13 -1 28 -15 15 -20 15 -43 -2z"/>
<path d="M5454 5845 c-12 -8 -24 -12 -27 -9 -3 3 -4 -1 -3 -8 0 -7 -3 -14 -8
-15 -5 0 -13 -8 -18 -17 -5 -8 -15 -13 -23 -10 -8 4 -13 10 -10 14 3 5 1 11
-4 14 -18 12 -22 -14 -6 -41 10 -17 14 -20 11 -8 -5 18 -5 18 7 4 10 -13 15
-14 24 -4 7 7 9 16 5 21 -4 4 -1 4 6 0 9 -5 10 -12 3 -20 -7 -9 -3 -12 19 -11
15 0 26 3 23 7 -2 5 1 9 6 9 6 1 16 3 21 4 6 1 14 3 20 4 5 0 7 8 4 16 -5 12
-10 12 -27 3 -12 -7 -26 -11 -30 -10 -5 1 -6 -2 -2 -8 3 -5 1 -10 -4 -10 -6 0
-11 5 -11 10 0 6 0 13 0 18 0 4 5 7 12 7 6 0 13 6 16 14 3 9 0 11 -8 6 -9 -5
-11 -4 -6 4 4 6 12 9 17 6 5 -4 9 -1 9 4 0 6 4 11 8 11 5 0 9 -7 9 -15 0 -8
-4 -12 -9 -9 -4 3 -8 0 -8 -5 0 -15 12 -14 35 3 18 13 18 14 -3 25 -26 14 -23
14 -48 -4z"/>
<path d="M5954 5833 c-1 -16 -4 -35 -8 -44 -5 -11 -2 -16 9 -16 11 0 14 7 10
21 -4 15 -1 13 10 -7 12 -21 13 -32 4 -48 -8 -16 -8 -23 1 -29 15 -9 -14 -22
-33 -14 -8 3 -14 -2 -14 -11 0 -9 6 -14 14 -11 8 3 12 2 9 -3 -3 -5 1 -12 10
-15 12 -4 15 -2 11 9 -4 8 -1 17 5 21 6 4 8 3 4 -4 -3 -6 -3 -13 2 -15 4 -3 8
26 8 63 0 38 -3 67 -8 64 -4 -3 -8 0 -8 5 0 6 5 11 10 11 6 0 10 5 10 10 0 6
-8 10 -17 8 -12 -2 -17 3 -15 15 2 9 -1 17 -5 17 -5 0 -9 -12 -9 -27z"/>
<path d="M3730 5840 c0 -5 5 -10 10 -10 6 0 10 5 10 10 0 6 -4 10 -10 10 -5 0
-10 -4 -10 -10z"/>
<path d="M4296 5834 c-5 -12 -2 -15 11 -10 15 5 15 4 -1 -9 -11 -8 -14 -15 -8
-15 7 0 15 0 19 0 13 -1 11 29 -2 40 -9 8 -14 6 -19 -6z"/>
<path d="M4735 5840 c-3 -5 -1 -10 4 -10 6 0 11 5 11 10 0 6 -2 10 -4 10 -3 0
-8 -4 -11 -10z"/>
<path d="M4910 5821 c-12 -30 -35 -56 -24 -28 3 8 -2 20 -11 27 -13 10 -21 9
-50 -11 -37 -25 -42 -34 -25 -44 6 -4 9 -1 8 7 -2 8 9 13 32 13 28 0 34 -4 32
-18 -2 -9 2 -17 8 -17 6 0 9 4 6 9 -9 15 22 21 33 7 13 -16 75 -16 91 0 14 14
3 42 -18 48 -24 8 -37 6 -34 -6 1 -5 -3 -6 -9 -2 -7 4 -9 0 -5 -14 4 -11 2
-23 -3 -27 -7 -4 -8 1 -5 12 4 13 3 15 -4 5 -7 -11 -11 -10 -16 4 -3 9 -4 19
-1 22 3 3 5 -1 5 -9 1 -10 3 -9 11 4 6 10 6 23 1 33 -7 13 -11 10 -22 -15z
m-39 -18 c13 -16 12 -17 -3 -4 -10 7 -18 15 -18 17 0 8 8 3 21 -13z m103 -13
c-6 -6 -10 -3 -10 10 0 13 4 16 10 10 7 -7 7 -13 0 -20z m-129 10 c3 -5 1 -10
-4 -10 -6 0 -11 5 -11 10 0 6 2 10 4 10 3 0 8 -4 11 -10z m157 -18 c-7 -2 -9
-9 -6 -14 4 -7 2 -8 -4 -4 -6 4 -9 13 -6 21 4 8 11 12 17 8 8 -5 7 -8 -1 -11z"/>
<path d="M3310 5820 c0 -5 5 -10 10 -10 6 0 10 5 10 10 0 6 -4 10 -10 10 -5 0
-10 -4 -10 -10z"/>
<path d="M3499 5828 c-5 -18 -6 -38 -1 -34 7 8 12 36 6 36 -2 0 -4 -1 -5 -2z"/>
<path d="M3846 5822 c-3 -5 1 -9 9 -9 8 0 12 4 9 9 -3 4 -7 8 -9 8 -2 0 -6 -4
-9 -8z"/>
<path d="M4644 5809 c-2 -4 0 -10 5 -14 6 -3 7 -13 4 -22 -5 -14 -3 -13 20 2
15 10 31 13 39 9 7 -5 22 -10 33 -11 15 -3 17 -1 7 9 -6 6 -12 16 -12 22 0 5
6 1 14 -9 8 -11 12 -26 9 -35 -3 -12 -2 -11 6 2 11 16 6 47 -8 49 -30 6 -113
4 -117 -2z m36 -9 c8 -5 11 -10 5 -10 -5 0 -17 5 -25 10 -8 5 -10 10 -5 10 6
0 17 -5 25 -10z m45 -8 c-3 -3 -11 0 -18 7 -9 10 -8 11 6 5 10 -3 15 -9 12
-12z"/>
<path d="M3617 5795 c-4 -8 -1 -17 6 -21 7 -4 9 -4 5 1 -4 4 -3 14 3 22 7 8 8
13 1 13 -5 0 -12 -7 -15 -15z"/>
<path d="M3820 5806 c0 -2 8 -10 18 -17 15 -13 16 -12 3 4 -13 16 -21 21 -21
13z"/>
<path d="M4620 5803 c0 -15 18 -35 23 -27 3 5 -1 15 -9 22 -8 7 -14 9 -14 5z"/>
<path d="M3798 5772 c4 -11 1 -13 -8 -7 -9 5 -11 4 -6 -3 11 -17 23 -15 28 6
3 11 0 19 -7 19 -8 0 -11 -7 -7 -15z"/>
<path d="M5030 5780 c0 -5 5 -10 11 -10 5 0 7 5 4 10 -3 6 -8 10 -11 10 -2 0
-4 -4 -4 -10z"/>
<path d="M5889 5769 c-15 -15 -24 -18 -32 -10 -6 6 -15 11 -21 11 -5 0 -1 -7
10 -16 10 -8 14 -13 7 -10 -18 9 -42 -4 -36 -20 3 -8 9 -11 14 -8 5 3 6 11 3
17 -4 8 -2 7 7 -1 12 -11 12 -14 0 -21 -7 -5 -21 -6 -31 -4 -10 3 -20 -2 -23
-11 -4 -9 -13 -13 -20 -10 -10 4 -14 -3 -14 -21 0 -14 2 -24 4 -21 3 3 12 -2
20 -10 8 -8 18 -12 22 -9 8 4 34 -40 35 -60 2 -21 29 -9 33 14 3 20 1 22 -12
11 -14 -11 -19 -7 -16 13 0 4 -3 7 -9 7 -5 0 -10 4 -10 10 0 5 6 8 13 6 6 -1
9 -1 4 1 -4 3 -4 10 -1 15 4 6 3 9 -2 5 -5 -3 -18 1 -29 9 -10 8 -14 14 -9 14
6 0 15 -5 22 -12 8 -8 12 -8 12 -1 0 15 -25 34 -35 25 -5 -4 -5 -1 -1 6 5 9
12 10 20 3 7 -6 18 -6 25 -1 8 4 21 5 30 2 14 -5 14 -4 2 12 -12 15 -12 19 4
34 18 16 18 16 5 -1 -11 -15 -11 -20 3 -34 15 -15 16 -13 12 28 -2 24 -1 39 3
34 8 -12 27 -13 38 -2 4 4 -1 7 -12 7 -16 0 -17 2 -4 10 10 6 11 10 3 10 -7 0
-22 -9 -34 -21z m-102 -100 c-1 -4 7 -14 18 -23 19 -14 19 -15 1 -12 -25 3
-54 43 -32 43 8 0 14 -4 13 -8z"/>
<path d="M3667 5767 c-3 -8 0 -14 7 -14 7 0 13 6 13 14 0 7 -4 13 -8 13 -4 0
-9 -6 -12 -13z"/>
<path d="M3090 5760 c0 -5 5 -10 10 -10 6 0 10 5 10 10 0 6 -4 10 -10 10 -5 0
-10 -4 -10 -10z"/>
<path d="M4570 5760 c0 -5 5 -10 11 -10 5 0 7 5 4 10 -3 6 -8 10 -11 10 -2 0
-4 -4 -4 -10z"/>
<path d="M4730 5760 c0 -5 5 -10 11 -10 5 0 7 5 4 10 -3 6 -8 10 -11 10 -2 0
-4 -4 -4 -10z"/>
<path d="M5941 5753 c-7 -7 -16 -11 -22 -8 -10 7 -10 6 -14 -45 -1 -19 0 -29
2 -22 3 6 10 9 15 6 6 -4 8 -2 5 3 -4 6 0 16 8 23 10 9 15 9 15 1 0 -6 4 -11
8 -11 4 0 8 9 8 20 0 15 -5 19 -21 15 -11 -2 -8 1 8 7 15 7 27 15 27 18 0 12
-26 7 -39 -7z m-16 -33 c3 -5 1 -10 -4 -10 -6 0 -11 5 -11 10 0 6 2 10 4 10 3
0 8 -4 11 -10z"/>
<path d="M5851 5682 c-1 -7 -6 -10 -12 -6 -6 3 -4 -7 4 -23 11 -21 13 -34 5
-48 -9 -16 -8 -18 2 -8 11 10 17 10 29 0 14 -10 14 -10 4 4 -7 9 -11 18 -8 21
3 3 -1 11 -10 18 -8 7 -15 17 -15 22 0 6 9 0 20 -13 10 -13 19 -19 20 -13 0 5
-4 15 -10 22 -5 7 -2 6 7 -2 13 -12 14 -18 5 -29 -10 -12 -5 -14 29 -14 28 0
37 3 29 11 -5 5 -10 14 -10 19 0 5 9 -1 20 -14 10 -13 19 -19 20 -12 0 14 -27
42 -43 45 -7 0 -16 2 -22 3 -5 2 -16 3 -23 4 -8 1 -10 6 -6 14 6 9 4 9 -8 -1
-13 -10 -17 -10 -21 0 -4 11 -6 10 -6 0z m79 -42 c0 -5 -4 -10 -10 -10 -5 0
-10 5 -10 10 0 6 5 10 10 10 6 0 10 -4 10 -10z"/>
<path d="M5983 5628 c2 -20 -2 -23 -38 -23 -25 0 -47 -6 -57 -17 -14 -14 -15
-18 -4 -18 8 0 18 5 21 10 4 6 11 8 16 5 5 -4 9 -1 9 6 0 9 4 9 15 -1 8 -6 18
-9 24 -6 14 9 23 -25 10 -40 -9 -11 -8 -18 1 -29 11 -13 10 -14 -6 -9 -16 6
-17 5 -6 -7 15 -16 16 -29 1 -29 -5 0 -8 4 -5 9 3 5 -2 15 -11 22 -15 12 -16
12 -10 -5 4 -10 2 -25 -4 -33 -10 -12 -8 -13 14 -9 15 2 30 0 33 -6 5 -7 2 -8
-6 -3 -9 6 -11 4 -5 -6 7 -11 5 -11 -10 1 -10 8 -16 10 -12 4 4 -7 -1 -18 -10
-25 -15 -12 -16 -12 -10 3 3 9 0 22 -8 28 -11 10 -13 7 -9 -17 2 -15 1 -23 -3
-18 -10 12 -37 19 -29 7 2 -4 1 -14 -5 -22 -6 -11 -9 -12 -9 -2 0 7 -5 10 -11
6 -8 -4 -7 -9 2 -15 20 -13 29 -11 29 6 0 11 7 14 25 11 13 -3 27 -1 30 4 6
10 24 8 45 -5 13 -8 13 -7 1 8 -7 9 -9 17 -4 17 5 0 9 50 9 110 0 61 -3 110
-8 110 -4 0 -7 -10 -5 -22z"/>
<path d="M5903 5567 c-5 -7 -15 -12 -23 -12 -8 0 -15 -7 -15 -15 0 -8 -4 -21
-8 -27 -5 -7 -4 -13 2 -13 17 0 33 38 18 44 -6 2 -1 4 13 3 14 -1 24 3 23 9
-1 6 4 11 12 11 8 0 12 -5 8 -10 -3 -5 4 -6 18 -3 21 6 21 5 -4 -9 -15 -9 -25
-20 -22 -26 4 -5 1 -8 -6 -7 -6 2 -14 -3 -16 -10 -3 -7 1 -11 7 -10 7 2 15 -4
17 -12 3 -12 2 -12 -5 -2 -7 11 -11 10 -20 -1 -9 -11 -7 -13 11 -12 14 1 22 9
23 21 3 48 3 50 15 34 9 -13 10 -13 6 0 -2 8 3 20 12 27 9 6 13 14 10 17 -12
13 -69 14 -76 3z"/>
<path d="M5802 5530 c-12 -12 -28 -17 -39 -14 -15 5 -16 4 -3 -5 11 -8 12 -11
2 -11 -10 0 -9 -4 3 -16 18 -18 15 -41 -5 -36 -11 2 -11 0 -1 -12 9 -10 9 -16
1 -21 -6 -4 -9 -12 -7 -18 5 -17 49 -16 82 1 17 9 33 15 38 14 4 -1 6 3 5 10
-2 7 3 13 10 14 6 1 15 2 19 3 4 0 -1 7 -12 14 -13 10 -15 16 -6 21 6 4 9 12
5 17 -3 6 5 22 17 36 20 21 21 24 4 13 -36 -22 -57 -58 -46 -79 13 -23 3 -35
-17 -18 -13 10 -14 8 -7 -12 6 -20 5 -22 -15 -16 -17 6 -21 4 -14 -6 6 -10 3
-10 -11 1 -17 14 -18 13 -12 -4 6 -15 5 -17 -6 -8 -8 7 -16 11 -18 9 -2 -1 1
3 7 8 6 6 9 15 7 21 -2 6 3 17 12 24 8 7 15 17 15 22 0 6 -6 6 -14 -1 -24 -20
-14 11 12 40 15 15 21 18 17 7 -6 -16 -3 -16 34 -9 6 2 -21 31 -28 31 -4 0
-17 -9 -29 -20z"/>
<path d="M5814 5493 c4 -9 -1 -24 -11 -35 -14 -15 -14 -21 -3 -31 10 -10 12
-9 7 5 -3 9 0 19 8 22 9 3 12 0 9 -8 -3 -8 -1 -17 4 -20 5 -3 8 11 6 32 l-2
37 14 -27 c20 -38 26 -35 10 4 -14 32 -54 52 -42 21z"/>
<path d="M5810 5377 c-14 -6 -29 -17 -33 -24 -5 -8 -12 -11 -18 -8 -13 9 -11
-9 3 -23 18 -18 30 -14 23 8 -5 14 -2 20 9 20 9 0 16 4 16 9 0 15 33 23 44 11
8 -8 6 -15 -8 -26 -14 -10 -16 -14 -5 -14 11 0 12 -2 0 -9 -8 -5 -9 -11 -3
-15 5 -3 15 1 22 9 7 8 16 12 21 9 5 -3 9 0 9 6 0 7 -8 9 -22 4 -20 -6 -21 -5
-9 10 11 13 11 19 1 31 -14 17 -17 17 -50 2z"/>
<path d="M5935 5380 c3 -5 8 -10 11 -10 2 0 4 5 4 10 0 6 -5 10 -11 10 -5 0
-7 -4 -4 -10z"/>
<path d="M5814 5352 c-11 -10 -19 -23 -16 -30 2 -6 -8 -17 -22 -23 -14 -7 -26
-17 -26 -22 0 -5 6 -4 14 2 10 8 16 9 21 1 3 -5 11 -10 17 -10 7 0 6 5 -1 14
-15 17 -1 28 19 15 11 -6 12 -9 2 -9 -7 0 -11 -4 -7 -9 9 -15 -14 -24 -29 -12
-11 9 -13 6 -13 -13 0 -22 1 -23 26 -10 23 12 28 12 39 -3 11 -15 12 -15 12
-1 0 9 -4 20 -10 23 -5 3 -10 12 -10 18 0 8 3 7 9 -2 7 -11 9 -11 14 0 4 11 6
11 6 1 1 -7 5 -10 11 -7 5 3 7 0 4 -8 -3 -8 2 -14 11 -14 11 0 14 6 9 21 -4
17 -3 18 5 6 7 -10 11 -11 11 -2 0 6 5 12 12 12 9 0 9 -3 0 -12 -17 -17 -15
-31 3 -24 9 3 18 -1 21 -9 9 -21 19 -19 21 5 1 11 -1 19 -5 19 -17 -3 -32 2
-31 9 3 18 -2 30 -15 35 -11 4 -13 1 -9 -11 6 -15 4 -15 -9 -4 -12 10 -22 11
-36 3 -15 -8 -23 -7 -32 4 -7 8 -9 15 -4 15 5 0 2 5 -6 10 -13 8 -11 11 8 16
12 4 22 10 22 15 0 14 -13 10 -36 -9z"/>
<path d="M5886 5358 c3 -4 9 -8 15 -8 5 0 9 4 9 8 0 5 -7 9 -15 9 -8 0 -12 -4
-9 -9z"/>
<path d="M5976 5358 c3 -5 10 -6 15 -3 13 9 11 12 -6 12 -8 0 -12 -4 -9 -9z"/>
<path d="M5950 5315 c-11 -13 -10 -14 4 -9 9 3 16 10 16 15 0 13 -6 11 -20 -6z"/>
<path d="M5812 5230 c-10 -16 -9 -18 8 -17 22 1 24 6 12 24 -6 9 -11 7 -20 -7z"/>
<path d="M5852 5225 c-7 -15 -18 -22 -34 -20 -32 3 -32 3 -18 20 8 9 9 15 2
15 -31 0 -22 -45 10 -56 15 -4 17 -8 8 -14 -9 -6 -9 -12 1 -31 7 -13 12 -27
11 -31 -1 -3 5 -9 13 -12 16 -6 20 5 8 18 -4 4 -8 15 -8 24 0 10 -7 16 -15 14
-10 -1 -9 2 4 13 11 8 14 15 7 15 -7 0 -9 5 -5 11 9 15 24 -9 17 -28 -4 -10 0
-10 22 1 26 14 55 12 55 -3 0 -9 -72 -75 -82 -76 -15 -1 -20 -15 -5 -15 9 0
23 10 31 22 9 12 16 17 16 10 0 -7 5 -10 10 -7 6 4 8 10 5 15 -10 16 28 29 50
18 20 -11 20 -11 1 11 -19 21 -19 22 -1 39 18 16 18 16 6 -1 -17 -22 -9 -33 9
-12 10 12 10 18 0 30 -7 8 -10 15 -6 15 3 0 -2 8 -11 18 -16 16 -19 16 -31 2
-10 -12 -12 -12 -10 -1 5 25 -49 21 -60 -4z m52 1 c-3 -8 -1 -17 5 -21 6 -3
14 1 17 10 6 14 8 14 19 -2 16 -22 0 -36 -25 -23 -11 6 -21 5 -29 -3 -17 -17
-44 12 -30 33 8 12 9 12 7 -4 -2 -10 2 -21 9 -23 6 -2 10 4 9 14 -2 10 2 21 8
25 15 11 16 10 10 -6z"/>
<path d="M5750 5220 c0 -5 5 -10 10 -10 6 0 10 5 10 10 0 6 -4 10 -10 10 -5 0
-10 -4 -10 -10z"/>
<path d="M5890 5151 c-8 -9 -11 -11 -6 -4 5 8 4 13 -2 13 -15 0 -35 -37 -24
-44 5 -3 21 5 37 18 15 13 24 25 19 28 -5 3 -16 -2 -24 -11z"/>
<path d="M5760 5130 c-13 -8 -13 -11 -1 -22 9 -8 12 -9 7 -1 -3 6 2 16 11 22
10 6 14 10 8 11 -5 0 -17 -5 -25 -10z"/>
<path d="M5790 5079 c0 -5 5 -7 10 -4 6 3 10 8 10 11 0 2 -4 4 -10 4 -5 0 -10
-5 -10 -11z"/>
<path d="M5825 5051 c-3 -5 -1 -12 4 -15 5 -3 11 1 15 9 6 16 -9 21 -19 6z"/>
<path d="M5990 5051 c0 -7 -4 -10 -8 -7 -5 3 -9 -2 -9 -10 0 -13 2 -13 16 0 8
9 12 19 8 22 -4 4 -7 2 -7 -5z"/>
<path d="M5754 4976 c0 -25 4 -32 12 -26 6 6 14 7 17 3 4 -3 7 -3 7 2 0 4 -8
14 -17 21 -16 12 -16 13 7 12 14 -1 31 -6 38 -11 8 -6 12 -6 12 1 0 6 -9 16
-20 22 -15 8 -20 8 -20 -2 0 -9 -3 -9 -12 0 -19 19 -24 14 -24 -22z"/>
<path d="M5950 4995 c0 -8 4 -15 10 -15 5 0 7 7 4 15 -4 8 -8 15 -10 15 -2 0
-4 -7 -4 -15z"/>
<path d="M5794 4963 c0 -10 -3 -17 -9 -16 -5 0 -17 -6 -25 -15 -13 -14 -12
-15 2 -10 8 4 21 1 27 -5 6 -6 14 -7 18 -3 4 4 1 11 -6 15 -8 5 -9 11 -3 15 6
3 13 0 16 -6 2 -7 3 -2 2 11 -3 28 -25 41 -22 14z"/>
<path d="M5834 4968 c-5 -7 -9 -21 -9 -31 -2 -27 -22 -44 -36 -30 -6 6 -18 9
-26 6 -10 -4 -5 -14 22 -38 23 -22 33 -38 29 -49 -3 -9 -10 -13 -15 -10 -5 3
-9 -1 -9 -9 0 -26 28 -28 34 -2 6 25 40 29 42 4 1 -8 2 -20 3 -26 0 -7 6 -13
12 -13 6 0 8 7 5 16 -3 8 -2 13 2 11 4 -3 16 4 26 14 21 21 15 25 -14 9 -16
-9 -19 -8 -13 7 3 10 10 24 16 31 6 8 6 12 -2 12 -6 0 -16 -10 -21 -22 -8 -22
-9 -22 -7 4 1 15 4 25 8 22 4 -2 11 1 14 7 5 7 -1 9 -16 7 -16 -2 -24 -10 -24
-22 0 -18 -24 -37 -26 -19 0 4 -2 20 -4 35 -5 35 22 60 36 35 6 -9 15 -17 21
-17 7 0 6 5 -2 15 -9 11 -9 15 -1 15 7 0 9 5 5 11 -5 8 -1 8 14 0 24 -13 39
-33 21 -29 -6 2 -14 -3 -17 -11 -2 -8 0 -11 6 -7 6 3 14 1 18 -5 5 -8 3 -9 -6
-4 -10 6 -12 4 -7 -8 3 -9 2 -19 -3 -22 -16 -10 -11 -21 8 -21 16 0 18 8 18
49 -1 35 -6 51 -19 58 -10 6 -15 14 -12 20 10 15 -7 10 -26 -7 -20 -18 -41
-11 -32 11 6 18 -3 20 -13 3z m-24 -88 c0 -5 -2 -10 -4 -10 -3 0 -8 5 -11 10
-3 6 -1 10 4 10 6 0 11 -4 11 -10z"/>
<path d="M5971 4953 c6 -7 17 -13 23 -12 7 0 6 2 -2 6 -6 2 -10 8 -8 12 3 4
-1 8 -9 8 -11 0 -12 -4 -4 -14z"/>
<path d="M5890 4919 c0 -5 5 -7 10 -4 6 3 10 8 10 11 0 2 -4 4 -10 4 -5 0 -10
-5 -10 -11z"/>
<path d="M5835 4910 c-4 -6 -3 -16 3 -22 6 -6 12 -6 17 2 4 6 3 16 -3 22 -6 6
-12 6 -17 -2z"/>
<path d="M5955 4884 c-8 -9 -13 -24 -10 -33 7 -22 -52 -86 -80 -86 -13 0 -20
-7 -20 -20 0 -11 -6 -20 -12 -20 -7 0 -12 -4 -10 -10 1 -5 6 -9 12 -7 15 5 25
26 20 40 -3 7 0 10 6 7 6 -4 8 -13 5 -21 -7 -17 3 -46 14 -39 4 2 6 15 5 27
-2 13 4 29 11 36 8 7 14 8 14 2 0 -5 5 -10 10 -10 7 0 7 6 0 19 -5 11 -6 22
-1 25 12 8 20 -4 14 -21 -5 -13 -3 -13 15 -2 19 12 19 14 4 25 -15 11 -15 13
-1 19 16 6 22 35 7 35 -4 0 -8 5 -8 11 0 5 6 7 13 3 6 -4 9 -4 5 1 -4 4 -3 14
3 22 16 18 4 16 -16 -3z"/>
<path d="M5835 4860 c3 -5 8 -10 11 -10 2 0 4 5 4 10 0 6 -5 10 -11 10 -5 0
-7 -4 -4 -10z"/>
<path d="M5940 4755 c-7 -9 -19 -14 -26 -11 -7 3 -15 -2 -18 -10 -8 -21 -8
-24 5 -24 5 0 7 6 3 13 -4 6 -4 9 1 5 4 -4 20 2 36 12 15 11 30 16 33 12 3 -5
2 -12 -1 -16 -11 -11 -14 -48 -4 -41 5 3 13 0 17 -6 7 -12 -15 -31 -27 -23 -4
2 -11 -5 -14 -17 -6 -19 -8 -19 -19 -3 -11 15 -13 15 -13 0 0 -9 4 -16 9 -16
5 0 6 -5 2 -11 -4 -8 -9 -7 -15 2 -4 7 -6 16 -3 20 2 4 -2 9 -10 12 -10 4 -12
0 -8 -15 4 -15 2 -19 -7 -14 -7 5 -10 10 -7 13 3 3 1 14 -5 25 -9 18 -8 18 10
9 18 -10 20 -9 15 6 -4 11 -2 14 3 8 4 -6 18 -12 31 -12 19 -2 21 1 12 13 -10
11 -10 17 0 29 7 8 8 15 2 15 -15 0 -33 -26 -24 -35 4 -5 0 -6 -10 -2 -9 3
-19 3 -23 -1 -4 -4 -12 -7 -18 -7 -7 -1 -11 -7 -9 -14 2 -11 -3 -10 -23 3 -14
9 -25 14 -25 10 0 -4 -6 -1 -14 5 -11 10 -14 9 -12 -1 1 -7 5 -18 8 -23 4 -6
3 -17 -1 -24 -6 -9 -11 -10 -15 -2 -9 14 -26 14 -26 0 0 -5 4 -8 9 -4 18 10
23 -16 7 -34 -17 -19 -22 -36 -7 -26 19 11 23 -17 5 -36 -18 -20 -13 -34 14
-34 10 0 15 -6 13 -15 -2 -8 -4 -26 -4 -40 l1 -25 -11 23 c-5 12 -14 22 -19
22 -12 0 -10 -10 7 -27 17 -17 14 -40 -4 -35 -17 3 -13 -15 5 -22 22 -9 26 -8
19 5 -4 5 1 19 11 30 13 14 15 22 6 31 -8 8 -6 18 6 36 12 19 13 24 3 18 -10
-7 -12 -5 -6 4 5 9 14 4 32 -16 20 -24 23 -26 21 -9 -2 11 -14 28 -28 37 -32
23 -41 23 -34 1 5 -15 4 -16 -5 -3 -14 20 -14 30 2 30 7 0 18 9 25 20 13 22 3
27 -16 8 -9 -9 -15 -9 -24 0 -9 9 -9 12 3 13 7 1 17 1 22 0 4 0 7 3 7 7 0 5 6
9 13 9 18 0 15 -46 -3 -57 -8 -6 -10 -10 -4 -10 5 0 16 6 23 13 9 8 12 8 7 0
-3 -6 8 -25 25 -42 17 -17 23 -28 15 -25 -9 3 -16 1 -16 -6 0 -6 4 -9 8 -6 5
3 9 -1 9 -9 0 -8 -3 -15 -7 -15 -4 0 -7 -7 -7 -15 0 -8 4 -15 9 -15 4 0 8 7 8
16 0 8 5 12 10 9 7 -4 6 -13 -1 -27 -8 -15 -14 -17 -22 -9 -15 15 -24 14 -24
-4 0 -9 6 -14 13 -11 8 3 16 0 20 -6 5 -7 2 -8 -6 -3 -9 6 -11 4 -5 -5 5 -8 4
-11 -1 -7 -5 3 -10 -3 -10 -13 0 -10 6 -16 13 -13 7 3 13 0 13 -7 0 -6 -4 -9
-8 -6 -4 2 -14 0 -22 -6 -13 -8 -12 -9 1 -5 12 4 16 -1 15 -16 0 -12 4 -21 11
-20 14 3 25 -24 13 -32 -16 -10 -11 -28 6 -21 10 4 13 2 8 -7 -5 -9 -3 -8 7 1
9 8 10 15 4 20 -6 4 -11 16 -13 27 -3 20 -2 20 13 1 8 -11 15 -15 15 -9 0 7
-5 15 -10 18 -6 4 -8 11 -5 16 4 5 1 9 -4 9 -6 0 -11 -5 -11 -11 0 -5 -5 -7
-10 -4 -8 5 -7 11 0 20 7 8 8 20 4 27 -12 19 -11 31 3 46 7 7 10 19 7 27 -4 8
-1 15 6 15 7 0 2 9 -11 20 -22 19 -22 20 -4 18 12 -2 21 3 21 12 1 8 2 21 3
28 0 7 5 11 9 8 5 -3 9 1 9 9 0 13 -4 12 -19 -2 -12 -11 -16 -24 -12 -37 6
-21 6 -21 -9 -1 -14 18 -14 22 6 45 12 13 15 19 6 12 -9 -6 -19 -9 -22 -5 -4
3 1 12 11 20 16 12 15 13 -3 6 -18 -6 -19 -5 -5 12 11 14 12 17 1 11 -9 -6
-12 -4 -9 5 6 19 29 19 50 1 15 -12 16 -18 6 -31 -10 -12 -8 -12 8 2 11 9 23
15 26 12 3 -3 8 0 11 8 3 8 -1 14 -9 14 -8 0 -14 -5 -14 -10 0 -15 -14 1 -16
18 -1 9 6 14 19 12 21 -2 22 2 22 63 1 47 -4 68 -15 77 -20 16 -25 16 -40 -2z
m-95 -97 c17 -9 29 -19 28 -22 -8 -17 -1 -27 13 -22 14 6 15 4 4 -9 -10 -11
-15 -13 -20 -4 -5 7 -10 8 -14 1 -3 -6 2 -13 13 -17 11 -3 18 -13 16 -23 -1
-9 2 -22 7 -29 6 -7 5 -14 -3 -19 -10 -6 -30 16 -35 39 -1 4 -3 9 -4 12 -1 3
-3 15 -4 28 -1 23 -19 29 -49 14 -17 -8 -17 -7 -3 21 11 21 12 32 4 40 -15 15
10 10 47 -10z m141 -15 c-2 -10 -11 -18 -22 -18 -10 0 -18 -6 -16 -13 1 -8 -2
-11 -8 -7 -6 4 -5 12 2 25 7 10 15 17 19 14 4 -2 10 0 14 6 9 15 14 12 11 -7z"/>
<path d="M5812 4666 c4 -5 3 -16 -2 -26 -6 -12 -5 -17 5 -17 7 0 11 7 8 16 -3
10 4 6 16 -8 12 -13 21 -19 21 -15 0 12 -12 27 -35 44 -11 8 -17 11 -13 6z"/>
<path d="M5857 4569 c7 -9 11 -18 8 -21 -3 -3 3 -11 12 -19 16 -12 17 -12 6 2
-7 9 -11 18 -8 21 3 3 -3 11 -12 19 -16 12 -17 12 -6 -2z"/>
<path d="M5944 4709 c-3 -6 0 -18 9 -26 10 -10 17 -12 22 -4 4 7 1 10 -7 9 -7
-2 -12 5 -12 15 2 20 -2 22 -12 6z"/>
<path d="M5843 4703 c-15 -5 -17 -23 -4 -23 5 0 11 7 15 15 3 8 4 15 3 14 -1
0 -8 -3 -14 -6z"/>
<path d="M5949 4483 c-13 -16 -12 -17 4 -4 16 13 21 21 13 21 -2 0 -10 -8 -17
-17z"/>
<path d="M5813 4476 c-8 -10 -8 -17 0 -25 8 -8 6 -16 -6 -29 -20 -21 -22 -32
-6 -32 5 0 8 4 5 9 -3 5 1 11 9 15 8 3 17 0 21 -6 4 -6 3 -8 -3 -5 -6 4 -14 0
-17 -9 -5 -12 -2 -15 9 -10 11 4 14 2 9 -7 -4 -6 -3 -8 1 -4 12 10 16 69 4 62
-5 -4 -9 -1 -9 4 0 14 13 14 26 1 6 -6 10 -3 11 9 1 14 -4 18 -22 17 -16 -2
-22 1 -18 10 6 17 1 17 -14 0z"/>
<path d="M5772 4364 c-12 -8 -22 -20 -22 -26 0 -6 3 -8 7 -5 3 4 14 0 24 -9
11 -10 19 -12 24 -5 3 6 -1 11 -9 11 -19 0 -20 9 -5 30 9 13 10 12 5 -2 -4
-14 0 -17 17 -15 22 2 24 -4 12 -34 -4 -12 0 -15 17 -13 34 4 34 4 19 13 -17
11 -24 41 -10 41 5 0 9 5 9 10 0 6 -11 8 -25 6 -14 -3 -25 0 -25 5 0 13 -12
11 -38 -7z"/>
<path d="M5933 4365 c0 -8 4 -12 9 -9 5 3 6 10 3 15 -9 13 -12 11 -12 -6z"/>
<path d="M5805 4310 c-4 -6 -10 -8 -14 -6 -4 3 -7 -18 -7 -46 1 -36 6 -53 16
-55 13 -4 13 -3 0 6 -11 8 -12 11 -2 11 7 0 10 4 7 10 -3 5 0 7 8 4 8 -3 14 2
14 11 0 10 -6 13 -19 9 -10 -3 -18 0 -18 6 0 6 4 8 10 5 6 -4 7 1 4 12 -4 11
-3 14 3 6 4 -6 17 -11 28 -10 15 2 19 -3 17 -17 -3 -18 -2 -18 15 -6 15 12 15
11 -2 -9 -18 -22 -18 -24 -2 -18 12 5 16 3 11 -5 -5 -7 -3 -8 6 -3 9 5 11 4 6
-4 -4 -6 -12 -8 -18 -5 -8 5 -9 1 -5 -11 4 -9 2 -24 -4 -31 -7 -8 -7 -14 -1
-14 14 0 33 25 25 33 -3 4 -1 7 6 7 7 0 9 5 6 10 -3 6 -2 10 4 10 5 0 11 -6
14 -12 3 -10 7 -10 20 1 12 9 17 10 17 2 0 -7 5 -9 11 -5 8 4 7 9 -2 15 -10 6
-10 9 -2 9 21 0 26 -21 7 -34 -11 -9 -13 -15 -6 -20 6 -4 9 -12 6 -19 -2 -7 4
-13 14 -14 16 -1 18 6 18 46 -1 35 -5 47 -14 44 -7 -3 -11 1 -9 8 2 8 2 11 0
7 -9 -16 -25 -7 -19 10 3 9 -3 5 -15 -10 -17 -23 -24 -26 -41 -17 -11 6 -17
17 -14 26 8 20 -13 39 -44 39 -17 0 -25 5 -24 17 2 19 -2 22 -11 7z m145 -84
c0 -2 -8 -10 -17 -17 -16 -13 -17 -12 -4 4 13 16 21 21 21 13z m37 -58 c2 -17
0 -19 -7 -8 -5 8 -6 18 -4 22 8 12 10 10 11 -14z"/>
<path d="M5834 4242 c4 -7 1 -15 -8 -18 -17 -6 -10 -35 7 -31 7 1 11 -6 11
-15 -1 -10 2 -15 8 -12 5 3 6 15 2 26 -3 11 -7 27 -8 34 -1 7 -6 17 -11 21 -4
4 -5 2 -1 -5z"/>
<path d="M5750 4219 c0 -5 5 -7 10 -4 6 3 10 8 10 11 0 2 -4 4 -10 4 -5 0 -10
-5 -10 -11z"/>
<path d="M5803 4179 c9 -5 17 -15 17 -22 0 -7 -4 -6 -10 3 -5 8 -10 10 -10 4
0 -7 12 -19 26 -28 26 -18 28 -40 3 -42 -42 -3 -49 -5 -49 -12 0 -5 7 -9 15
-9 8 0 15 4 15 9 0 4 5 8 11 8 5 0 7 -4 4 -10 -10 -16 7 -11 19 6 10 13 12 8
10 -26 -1 -32 2 -40 13 -36 8 3 17 6 19 6 2 0 4 5 4 11 0 5 -4 7 -10 4 -5 -3
-10 -1 -10 5 0 7 6 10 13 7 9 -3 14 4 14 23 0 17 -5 26 -12 24 -7 -3 -18 3
-26 13 -13 16 -12 17 4 4 9 -8 21 -11 24 -7 4 4 1 11 -6 15 -10 7 -9 10 8 16
12 3 18 11 15 17 -4 6 -3 9 2 5 5 -3 17 1 27 8 17 12 16 13 -8 11 -14 0 -28
-8 -30 -18 -3 -9 -13 -19 -22 -22 -19 -8 -44 11 -37 28 3 7 -6 12 -23 14 -24
1 -25 0 -10 -9z"/>
<path d="M5922 4157 c-7 -8 -9 -17 -5 -21 4 -4 -1 -4 -11 0 -15 6 -17 4 -8
-12 15 -29 7 -85 -14 -101 -25 -18 -39 -11 -38 20 0 21 -3 24 -13 15 -8 -6
-12 -17 -9 -25 3 -7 1 -13 -4 -13 -11 0 -34 -39 -27 -46 2 -3 12 -2 21 2 14 5
14 9 4 23 -12 14 -11 15 5 2 14 -11 17 -11 17 0 0 11 2 11 10 -1 9 -13 11 -13
21 0 9 13 10 13 6 -2 -5 -13 0 -16 21 -14 14 2 28 8 30 14 2 7 -5 9 -17 7 -24
-4 -28 10 -6 19 8 3 14 11 13 18 -2 7 2 12 9 11 6 -2 11 6 10 17 -1 11 -5 20
-10 20 -4 0 -6 4 -3 9 4 5 3 11 -1 14 -5 2 -2 2 5 0 9 -2 11 3 7 16 -3 11 -2
22 3 25 5 3 8 -9 7 -28 -2 -23 1 -33 11 -33 10 0 12 6 8 16 -4 9 -7 25 -9 35
-2 25 -18 31 -33 13z"/>
<path d="M5754 4127 c-4 -7 -4 -9 1 -5 4 4 14 3 22 -3 8 -7 13 -8 13 -1 0 15
-28 23 -36 9z"/>
<path d="M5973 4110 c1 -15 -3 -25 -12 -25 -8 0 -15 -13 -17 -30 -2 -23 -1
-26 7 -15 9 13 10 13 6 0 -2 -8 -11 -14 -20 -12 -8 1 -19 -3 -23 -9 -4 -7 -3
-9 4 -5 15 9 27 -13 13 -27 -14 -14 -51 -17 -74 -5 -14 7 -19 3 -27 -17 -5
-14 -9 -29 -8 -33 1 -4 -3 -17 -10 -30 -7 -12 -10 -27 -7 -32 3 -6 1 -10 -4
-10 -6 0 -10 -6 -8 -12 1 -7 -6 -13 -15 -13 -9 0 -20 -3 -24 -7 -9 -10 16 -39
27 -32 5 3 9 0 9 -5 0 -6 4 -11 8 -11 4 0 8 9 8 20 0 14 -5 18 -17 15 -10 -3
-20 -2 -23 3 -3 6 0 10 7 9 39 -1 45 3 42 31 -2 16 1 35 6 43 8 11 9 9 5 -6
-5 -16 -1 -21 14 -21 11 0 20 4 20 8 0 4 -4 8 -8 8 -5 0 -9 6 -10 13 0 6 -2
21 -4 32 -2 12 2 19 10 18 6 -2 12 1 12 5 0 11 62 8 83 -4 11 -6 18 -14 18
-17 -3 -20 0 -30 6 -24 3 4 7 18 9 31 2 17 -2 23 -11 20 -24 -9 -26 14 -5 53
22 41 25 58 11 48 -5 -3 -12 -1 -16 4 -3 6 5 8 20 5 21 -4 25 -1 23 20 -1 14
-5 23 -9 20 -4 -2 -10 2 -13 8 -2 7 -4 2 -3 -12z"/>
<path d="M5985 4049 c-4 -6 -5 -13 -2 -15 3 -3 -3 -14 -14 -25 -25 -25 -24
-42 1 -34 17 5 20 2 17 -22 -5 -43 -13 -51 -48 -47 -24 3 -29 1 -21 -9 6 -6
10 -16 10 -22 0 -5 5 -11 11 -13 6 -2 8 3 5 12 -3 9 -1 16 6 16 6 0 8 -4 5
-10 -3 -5 -2 -10 3 -10 5 0 14 10 21 23 l11 22 -6 -22 c-3 -13 -2 -23 3 -23 5
0 9 43 9 95 0 52 -1 95 -2 95 -2 0 -6 -5 -9 -11z"/>
<path d="M5750 4000 c0 -5 5 -10 10 -10 6 0 10 5 10 10 0 6 -4 10 -10 10 -5 0
-10 -4 -10 -10z"/>
<path d="M5755 3951 c-4 -7 -2 -18 4 -24 6 -6 11 -7 11 -1 0 5 5 2 10 -6 5 -8
10 -10 10 -4 0 5 -6 18 -13 29 -11 13 -16 15 -22 6z"/>
<path d="M5875 3950 c-11 -4 -23 -6 -27 -3 -12 6 -10 -5 7 -37 8 -16 12 -37 9
-47 -7 -17 -6 -17 12 0 16 15 17 19 4 27 -8 5 -10 10 -4 10 6 0 11 7 11 15 0
17 -13 20 -20 5 -3 -6 -4 -5 -3 2 2 7 9 13 17 13 8 0 13 -6 12 -12 -2 -7 2
-13 8 -13 6 0 9 8 7 18 -3 11 0 19 8 19 7 0 11 -4 8 -9 -7 -12 6 -29 17 -23
14 9 -7 40 -28 42 -10 0 -27 -3 -38 -7z"/>
<path d="M5895 3891 c4 -7 -1 -21 -11 -32 -17 -19 -19 -19 -31 -3 -14 19 -22
16 -27 -12 -3 -11 -7 -27 -11 -36 -4 -11 -3 -18 5 -18 6 0 8 4 5 10 -4 6 1 7
12 3 16 -6 17 -5 3 13 -14 18 -14 18 4 4 18 -13 19 -13 14 1 -4 9 -1 16 8 16
7 0 11 -4 8 -9 -3 -4 -1 -8 5 -8 15 0 23 18 9 22 -8 3 -6 7 5 11 9 3 23 -1 33
-10 13 -14 17 -14 26 -2 8 11 9 10 4 -4 -5 -15 -2 -17 17 -12 17 5 19 4 7 -4
-13 -10 -13 -11 0 -12 8 0 2 -7 -15 -14 -16 -7 -36 -10 -45 -7 -13 5 -13 3 -1
-11 10 -13 17 -14 27 -6 16 13 37 2 30 -16 -3 -8 0 -15 7 -18 8 -2 8 -5 -1
-11 -7 -4 -12 -2 -12 3 0 6 -4 11 -8 11 -4 0 -8 -9 -8 -20 0 -15 5 -19 21 -14
16 4 17 3 5 -5 -10 -7 -11 -11 -2 -11 6 0 12 -5 12 -11 0 -8 -4 -8 -15 1 -8 6
-20 10 -27 7 -8 -3 0 -10 17 -17 17 -7 25 -14 17 -17 -10 -4 -10 -8 0 -21 7
-9 8 -13 2 -9 -7 4 -18 -1 -25 -11 -7 -9 -9 -14 -5 -10 5 4 15 3 23 -4 7 -6
16 -8 20 -4 3 3 1 6 -6 6 -7 0 -9 5 -4 13 4 6 8 65 8 129 0 94 -2 115 -12 106
-11 -8 -12 -7 -7 7 6 15 4 16 -15 5 -24 -12 -53 1 -48 22 1 6 -4 13 -12 16 -9
3 -11 0 -6 -7z"/>
<path d="M5905 3839 c4 -10 -11 -22 -47 -39 -29 -14 -60 -25 -68 -26 -34 -2
-40 -5 -40 -15 0 -8 4 -8 13 0 10 8 17 7 25 -1 9 -9 16 -7 32 7 17 15 22 16
36 4 14 -11 15 -10 12 7 -2 16 3 19 35 18 20 0 37 3 37 8 0 4 8 5 18 2 12 -4
12 -2 -3 7 -11 6 -28 19 -38 27 -15 13 -17 13 -12 1z m25 -23 c0 -2 -7 -7 -16
-10 -8 -3 -12 -2 -9 4 6 10 25 14 25 6z"/>
<path d="M5886 3776 c15 -12 16 -17 7 -27 -10 -10 -17 -9 -33 6 -19 17 -21 17
-40 0 -17 -15 -22 -16 -37 -4 -15 12 -16 12 -10 -3 3 -9 -1 -22 -9 -28 -16
-15 -19 -30 -3 -30 5 0 8 4 5 9 -9 14 52 39 85 35 35 -4 81 -33 73 -45 -3 -5
-10 -7 -15 -4 -15 10 -10 -12 7 -29 8 -9 21 -13 27 -9 7 4 6 -1 -2 -10 -14
-18 -5 -22 17 -8 20 12 19 19 -6 36 -17 13 -20 20 -12 35 13 24 13 30 -1 30
-5 0 -7 -5 -3 -11 4 -8 1 -8 -14 0 -13 7 -19 17 -15 26 4 11 9 13 18 5 13 -11
45 -4 45 11 0 12 -17 11 -25 -1 -4 -6 -16 -3 -32 10 -14 11 -30 20 -36 20 -6
0 -2 -6 9 -14z m54 -116 c0 -5 -2 -10 -4 -10 -3 0 -8 5 -11 10 -3 6 -1 10 4
10 6 0 11 -4 11 -10z"/>
<path d="M5875 3760 c-3 -5 -1 -10 4 -10 6 0 11 5 11 10 0 6 -2 10 -4 10 -3 0
-8 -4 -11 -10z"/>
<path d="M5820 3718 c0 -4 -6 -5 -14 -2 -17 7 -28 -9 -20 -29 8 -21 35 -30 48
-16 8 9 7 10 -3 4 -10 -6 -12 -4 -6 5 6 10 4 12 -9 7 -9 -4 -15 -3 -11 2 3 5
0 11 -6 13 -7 2 11 4 39 4 29 0 48 -2 44 -5 -11 -9 -11 -42 1 -34 6 4 7 1 2
-6 -5 -9 -10 -10 -18 -2 -16 16 -31 13 -17 -3 10 -13 7 -14 -14 -10 -14 2 -26
1 -26 -4 0 -13 70 -8 79 6 4 6 7 24 6 39 0 20 -5 28 -18 27 -9 -1 -17 1 -17 5
0 4 -9 7 -20 7 -11 0 -20 -4 -20 -8z"/>
<path d="M5846 3686 c10 -8 21 -12 24 -10 5 6 -21 24 -34 24 -6 0 -1 -6 10
-14z"/>
<path d="M5760 3660 c-7 -31 -6 -39 6 -44 20 -8 25 9 9 30 -8 10 -15 17 -15
14z"/>
<path d="M5953 3583 c4 -3 1 -13 -6 -22 -11 -14 -10 -14 6 -2 20 15 22 31 5
31 -6 0 -8 -3 -5 -7z"/>
<path d="M5756 3542 c-3 -5 1 -9 9 -9 8 0 12 4 9 9 -3 4 -7 8 -9 8 -2 0 -6 -4
-9 -8z"/>
<path d="M5750 3299 c0 -5 5 -7 10 -4 6 3 10 8 10 11 0 2 -4 4 -10 4 -5 0 -10
-5 -10 -11z"/>
<path d="M5785 3290 c4 -6 -4 -19 -16 -29 -13 -10 -19 -23 -15 -30 6 -9 11 -9
21 -1 18 15 25 -8 12 -38 -8 -16 -13 -19 -18 -10 -4 7 -11 9 -15 5 -4 -4 2
-14 15 -23 16 -11 20 -22 15 -37 -6 -22 -6 -22 9 -2 11 15 12 22 4 27 -9 6 -8
8 2 8 10 0 11 3 3 13 -6 7 -7 18 -3 26 6 9 11 10 15 2 4 -6 2 -11 -5 -11 -8 0
-9 -3 0 -13 6 -8 8 -17 4 -20 -9 -10 10 -8 25 2 11 7 11 9 -1 14 -10 4 -13 17
-11 45 2 29 -3 45 -17 61 -21 22 -35 28 -24 11z m30 -48 c1 -11 -2 -19 -7 -16
-5 4 -7 13 -4 21 5 11 1 13 -17 8 -17 -5 -19 -4 -7 4 21 15 33 9 35 -17z"/>
<path d="M5910 3222 c0 -5 7 -9 15 -9 8 0 12 4 9 9 -3 4 -9 8 -15 8 -5 0 -9
-4 -9 -8z"/>
<path d="M5950 3216 c0 -2 8 -10 18 -17 15 -13 16 -12 3 4 -13 16 -21 21 -21
13z"/>
<path d="M5934 3178 c-4 -6 -3 -8 4 -4 5 3 12 1 14 -6 3 -8 6 -9 11 -1 4 6 0
13 -8 17 -8 3 -17 0 -21 -6z"/>
<path d="M5976 3153 c-6 -14 -5 -15 5 -6 7 7 10 15 7 18 -3 3 -9 -2 -12 -12z"/>
<path d="M5800 3120 c-6 -11 -16 -17 -25 -14 -8 4 -12 10 -9 15 3 5 0 9 -5 9
-16 0 -13 -15 7 -33 11 -10 22 -13 32 -7 8 5 18 6 22 4 17 -11 28 7 18 27 -14
24 -26 24 -40 -1z m30 6 c0 -2 -8 -10 -17 -17 -16 -13 -17 -12 -4 4 13 16 21
21 21 13z"/>
<path d="M5991 3114 c0 -11 3 -14 6 -6 3 7 2 16 -1 19 -3 4 -6 -2 -5 -13z"/>
<path d="M5970 3086 c0 -2 7 -7 16 -10 8 -3 12 -2 9 4 -6 10 -25 14 -25 6z"/>
<path d="M5750 3063 c0 -6 7 -14 16 -17 15 -6 15 -8 -1 -26 -10 -11 -15 -23
-12 -27 4 -3 7 -3 7 2 0 4 6 3 13 -3 20 -17 15 44 -6 65 -9 10 -17 12 -17 6z"/>
<path d="M5964 3059 c-3 -6 -1 -16 5 -22 9 -9 10 -7 5 7 -6 15 -4 17 6 11 9
-5 11 -4 6 3 -9 15 -13 15 -22 1z"/>
<path d="M5955 3000 c-3 -5 -1 -10 4 -10 6 0 11 5 11 10 0 6 -2 10 -4 10 -3 0
-8 -4 -11 -10z"/>
<path d="M5885 2980 c-3 -6 1 -7 9 -4 18 7 21 14 7 14 -6 0 -13 -4 -16 -10z"/>
<path d="M5864 2909 c-2 -4 -14 -6 -25 -4 -20 4 -20 3 -6 -19 12 -18 13 -26 4
-37 -9 -9 -7 -9 7 1 16 12 20 12 31 -3 11 -16 14 -16 26 -1 11 14 10 15 -7 12
-14 -2 -18 2 -16 16 3 18 2 18 -14 5 -16 -13 -16 -12 -4 8 15 23 30 22 30 -3
0 -8 5 -14 11 -14 5 0 7 5 3 12 -5 7 -3 8 6 3 8 -5 17 -2 25 8 10 14 12 14 23
-4 9 -14 9 -19 1 -19 -8 0 -8 -4 1 -15 7 -8 16 -12 21 -9 5 3 9 0 9 -5 0 -6
-4 -11 -9 -11 -5 0 -8 -11 -7 -24 2 -14 -4 -39 -12 -56 -11 -22 -12 -34 -4
-42 7 -7 10 -5 9 8 -1 12 4 18 13 17 25 -4 22 127 -2 145 -10 7 -16 18 -13 23
7 10 5 11 -53 13 -24 1 -45 -1 -48 -5z"/>
<path d="M5926 2874 c-11 -8 -16 -14 -10 -14 13 0 39 18 34 24 -3 2 -14 -2
-24 -10z"/>
<path d="M5904 2838 c-31 -25 -42 -48 -21 -48 11 0 41 -36 42 -52 0 -3 4 -10
9 -15 5 -4 6 -3 3 3 -4 7 0 15 9 18 9 4 14 13 10 21 -3 8 -1 15 5 15 6 0 7 5
4 10 -11 17 -26 0 -20 -23 2 -12 2 -16 -1 -9 -3 6 -10 10 -15 7 -5 -4 -6 2 -2
11 5 13 3 15 -7 9 -9 -6 -11 -4 -5 5 5 8 4 11 -3 6 -6 -3 -13 -2 -16 3 -4 5
-1 13 5 17 8 4 9 3 5 -4 -5 -8 -1 -10 9 -5 13 4 14 8 4 14 -8 4 -10 11 -6 16
11 10 26 -17 20 -35 -5 -12 -3 -12 14 -1 19 12 20 14 4 28 -9 9 -12 13 -7 9
18 -14 29 -8 16 7 -16 20 -21 19 -56 -7z"/>
</g>
</svg>
